<svg width="61" height="63" viewBox="0 0 61 63" fill="none" xmlns="http://www.w3.org/2000/svg">
    <path
        d="M47.9961 7.75C47.9961 7.05964 48.5557 6.5 49.2461 6.5H56.2461C56.9364 6.5 57.4961 7.05964 57.4961 7.75V14.75C57.4961 15.4404 56.9364 16 56.2461 16C55.5557 16 54.9961 15.4404 54.9961 14.75V10.7717L48.3839 17.3839C47.8957 17.872 47.1043 17.872 46.6161 17.3839L43.5 14.2678L38.1339 19.6339C37.6457 20.122 36.8543 20.122 36.3661 19.6339C35.878 19.1457 35.878 18.3543 36.3661 17.8661L42.6161 11.6161C43.1043 11.128 43.8957 11.128 44.3839 11.6161L47.5 14.7322L53.2322 9H49.2461C48.5557 9 47.9961 8.44036 47.9961 7.75Z"
        fill="url(#paint0_linear_4185_1189)" />
    <path
        d="M33 3C33.5523 3 34 3.44772 34 4V24.5C34 25.8807 35.1193 27 36.5 27H57C57.5523 27 58 27.4477 58 28C58 28.5523 57.5523 29 57 29H36.5C34.0147 29 32 26.9853 32 24.5V4C32 3.44772 32.4477 3 33 3Z"
        fill="url(#paint1_linear_4185_1189)" />
    <path
        d="M8 26.9999C9.20616 28.1733 10.6773 29.0487 12.0097 29.6584C15.2717 31.1512 19.5145 31.9756 24 31.9756C28.4855 31.9756 32.7283 31.1512 35.9903 29.6584C37.3227 29.0487 38.7938 28.1733 40 26.9999V51.25H39.9932C39.8542 53.7768 37.6196 55.6879 34.95 56.9096C32.0832 58.2215 28.2106 59 24 59C19.7894 59 15.9168 58.2215 13.05 56.9096C10.3804 55.6879 8.14576 53.7768 8.00685 51.25H8V26.9999Z"
        fill="url(#paint2_linear_4185_1189)" />
    <path
        d="M8 26.9999C9.20616 28.1733 10.6773 29.0487 12.0097 29.6584C15.2717 31.1512 19.5145 31.9756 24 31.9756C28.4855 31.9756 32.7283 31.1512 35.9903 29.6584C37.3227 29.0487 38.7938 28.1733 40 26.9999V51.25H39.9932C39.8542 53.7768 37.6196 55.6879 34.95 56.9096C32.0832 58.2215 28.2106 59 24 59C19.7894 59 15.9168 58.2215 13.05 56.9096C10.3804 55.6879 8.14576 53.7768 8.00685 51.25H8V26.9999Z"
        fill="url(#paint3_linear_4185_1189)"
        fill-opacity="0.7" />
    <path
        d="M13.05 21.0904C15.9168 19.7785 19.7894 19 24 19C28.2106 19 32.0832 19.7785 34.95 21.0904C37.7069 22.352 40 24.3489 40 27C40 29.6511 37.7069 31.648 34.95 32.9096C32.0832 34.2215 28.2106 35 24 35C19.7894 35 15.9168 34.2215 13.05 32.9096C10.2931 31.648 8 29.6511 8 27C8 24.3489 10.2931 22.352 13.05 21.0904Z"
        fill="url(#paint4_linear_4185_1189)" />
    <defs>
        <linearGradient
            id="paint0_linear_4185_1189"
            x1="34.3465"
            y1="19.25"
            x2="63.3893"
            y2="7.68876"
            gradientUnits="userSpaceOnUse">
            <stop stop-color="#0FAFFF" />
            <stop offset="0.445478" stop-color="#9C6CFE" />
            <stop offset="0.956907" stop-color="#E656EB" />
        </linearGradient>
        <linearGradient
            id="paint1_linear_4185_1189"
            x1="55.5625"
            y1="4.625"
            x2="32.8095"
            y2="38.5051"
            gradientUnits="userSpaceOnUse">
            <stop stop-color="#70777D" />
            <stop offset="1" stop-color="#B9C0C7" />
        </linearGradient>
        <linearGradient
            id="paint2_linear_4185_1189"
            x1="15.5545"
            y1="19.791"
            x2="32.8697"
            y2="56.1532"
            gradientUnits="userSpaceOnUse">
            <stop stop-color="#29C3FF" />
            <stop offset="1" stop-color="#367AF2" />
        </linearGradient>
        <linearGradient
            id="paint3_linear_4185_1189"
            x1="28.9524"
            y1="30.9298"
            x2="35.2943"
            y2="62.4416"
            gradientUnits="userSpaceOnUse">
            <stop offset="0.53288" stop-color="#FF6CE8" stop-opacity="0" />
            <stop offset="1" stop-color="#FF6CE8" />
        </linearGradient>
        <linearGradient
            id="paint4_linear_4185_1189"
            x1="52"
            y1="43"
            x2="33.509"
            y2="9.34346"
            gradientUnits="userSpaceOnUse">
            <stop stop-color="#58AAFE" />
            <stop offset="1" stop-color="#6CE0FF" />
        </linearGradient>
    </defs>
</svg>
