<svg width="24" height="24" viewBox="0 0 24 24" fill="none" xmlns="http://www.w3.org/2000/svg">
    <path
        d="M3 4C3 2.34315 4.34315 1 6 1H18C19.6569 1 21 2.34315 21 4V20C21 21.6569 19.6569 23 18 23H6C4.34315 23 3 21.6569 3 20V4Z"
        fill="url(#paint0_linear_41449_45699)" />
    <path
        d="M3 4C3 2.34315 4.34315 1 6 1H18C19.6569 1 21 2.34315 21 4V20C21 21.6569 19.6569 23 18 23H6C4.34315 23 3 21.6569 3 20V4Z"
        fill="url(#paint1_radial_41449_45699)"
        fill-opacity="0.2" />
    <path
        fill-rule="evenodd"
        clip-rule="evenodd"
        d="M18 2H6C4.89543 2 4 2.89543 4 4V20C4 21.1046 4.89543 22 6 22H18C19.1046 22 20 21.1046 20 20V4C20 2.89543 19.1046 2 18 2ZM6 1C4.34315 1 3 2.34315 3 4V20C3 21.6569 4.34315 23 6 23H18C19.6569 23 21 21.6569 21 20V4C21 2.34315 19.6569 1 18 1H6Z"
        fill="url(#paint2_linear_41449_45699)" />
    <path
        d="M11.4923 18H16C17.1046 18 18 17.1046 18 16V11.7907C18 11.2237 17.7594 10.6834 17.338 10.3041L13.3384 6.70419C12.5778 6.01961 11.4231 6.01957 10.6625 6.70408L6.66213 10.3041C6.24067 10.6834 6 11.2238 6 11.7908V16C6 17.1046 6.89543 18 8 18H12.5077"
        fill="url(#paint3_linear_41449_45699)" />
    <path
        d="M9 12.75C9.41421 12.75 9.75 12.4142 9.75 12C9.75 11.5858 9.41421 11.25 9 11.25C8.58579 11.25 8.25 11.5858 8.25 12C8.25 12.4142 8.58579 12.75 9 12.75Z"
        fill="#B4CDF8" />
    <path
        d="M12.75 12C12.75 12.4142 12.4142 12.75 12 12.75C11.5858 12.75 11.25 12.4142 11.25 12C11.25 11.5858 11.5858 11.25 12 11.25C12.4142 11.25 12.75 11.5858 12.75 12Z"
        fill="#B4CDF8" />
    <path
        d="M15.75 12C15.75 12.4142 15.4142 12.75 15 12.75C14.5858 12.75 14.25 12.4142 14.25 12C14.25 11.5858 14.5858 11.25 15 11.25C15.4142 11.25 15.75 11.5858 15.75 12Z"
        fill="#B4CDF8" />
    <path
        d="M12.75 15C12.75 15.4142 12.4142 15.75 12 15.75C11.5858 15.75 11.25 15.4142 11.25 15C11.25 14.5858 11.5858 14.25 12 14.25C12.4142 14.25 12.75 14.5858 12.75 15Z"
        fill="#B4CDF8" />
    <path
        d="M15 15.75C15.4142 15.75 15.75 15.4142 15.75 15C15.75 14.5858 15.4142 14.25 15 14.25C14.5858 14.25 14.25 14.5858 14.25 15C14.25 15.4142 14.5858 15.75 15 15.75Z"
        fill="#B4CDF8" />
    <path
        d="M9.75 15C9.75 15.4142 9.41421 15.75 9 15.75C8.58579 15.75 8.25 15.4142 8.25 15C8.25 14.5858 8.58579 14.25 9 14.25C9.41421 14.25 9.75 14.5858 9.75 15Z"
        fill="#B4CDF8" />
    <defs>
        <linearGradient
            id="paint0_linear_41449_45699"
            x1="8"
            y1="1"
            x2="11.3757"
            y2="23.0954"
            gradientUnits="userSpaceOnUse">
            <stop stop-color="white" />
            <stop offset="1" stop-color="#EBEBEB" />
        </linearGradient>
        <radialGradient
            id="paint1_radial_41449_45699"
            cx="0"
            cy="0"
            r="1"
            gradientUnits="userSpaceOnUse"
            gradientTransform="translate(8.75 6.72917) rotate(61.3895) scale(19.8391 15.6375)">
            <stop offset="0.177083" stop-color="white" />
            <stop offset="1" stop-color="#B8B8B8" />
        </radialGradient>
        <linearGradient
            id="paint2_linear_41449_45699"
            x1="8.8125"
            y1="1"
            x2="12.4019"
            y2="23.0262"
            gradientUnits="userSpaceOnUse">
            <stop stop-color="#BBBBBB" />
            <stop offset="1" stop-color="#888888" />
        </linearGradient>
        <linearGradient
            id="paint3_linear_41449_45699"
            x1="6"
            y1="5.5"
            x2="18.4896"
            y2="17.49"
            gradientUnits="userSpaceOnUse">
            <stop stop-color="#3477EA" />
            <stop offset="1" stop-color="#1D53A4" />
        </linearGradient>
    </defs>
</svg>
