<svg xmlns="http://www.w3.org/2000/svg" viewBox="0 0 2048 2048">
    <path
        fill="#d02e00"
        d="M0 960q0-132 34-254t97-230 150-194 195-150 229-97T960 0q132 0 254 34t229 97 195 151 150 194 97 229 35 255q0 132-34 254t-97 230-150 194-195 150-229 97-255 35q-133 0-255-34t-229-97-194-150-150-194-97-230T0 960zm608 432q15 0 30-6t27-17l295-296 295 296q11 11 26 17t31 6q34 0 57-23t23-57q0-34-23-57l-296-295 296-295q23-23 23-57t-23-57-57-23q-34 0-57 23L960 847 665 551q-23-23-57-23t-57 23-23 57q0 15 6 30t17 27l296 295-296 295q-11 11-17 26t-6 31q0 33 23 56t57 24z" />
</svg>
