<svg viewBox="0 0 16 16" fill="none" xmlns="http://www.w3.org/2000/svg">
  <path opacity="0.1" d="M13.5 7.5C13.5 8.68669 13.1481 9.84673 12.4888 10.8334C11.8295 11.8201 10.8925 12.5892 9.7961 13.0433C8.69974 13.4974 7.49334 13.6162 6.32946 13.3847C5.16557 13.1532 4.09647 12.5818 3.25736 11.7426C2.41824 10.9035 1.8468 9.83443 1.61529 8.67054C1.38378 7.50666 1.5026 6.30026 1.95672 5.2039C2.41085 4.10754 3.17988 3.17047 4.16658 2.51118C5.15327 1.85189 6.31331 1.5 7.5 1.5C9.0913 1.5 10.6174 2.13214 11.7426 3.25736C12.8679 4.38258 13.5 5.9087 13.5 7.5Z" fill="#006CBE" />
  <path d="M7.5 1C6.21442 1 4.95771 1.38122 3.88879 2.09545C2.81987 2.80968 1.98675 3.82484 1.49478 5.01256C1.00281 6.20028 0.874091 7.50721 1.12489 8.76809C1.3757 10.029 1.99476 11.1872 2.90381 12.0962C3.81285 13.0052 4.97104 13.6243 6.23191 13.8751C7.49279 14.1259 8.79972 13.9972 9.98744 13.5052C11.1752 13.0132 12.1903 12.1801 12.9046 11.1112C13.6188 10.0423 14 8.78558 14 7.5C13.9979 5.77674 13.3124 4.12467 12.0939 2.90614C10.8753 1.68762 9.22326 1.00212 7.5 1V1ZM7.5 13C6.4122 13 5.34883 12.6774 4.44436 12.0731C3.53989 11.4687 2.83494 10.6098 2.41866 9.60476C2.00238 8.59977 1.89346 7.4939 2.10568 6.427C2.3179 5.36011 2.84172 4.3801 3.61091 3.61091C4.3801 2.84172 5.36011 2.3179 6.427 2.10568C7.4939 1.89346 8.59976 2.00238 9.60476 2.41866C10.6098 2.83494 11.4687 3.53989 12.0731 4.44436C12.6774 5.34883 13 6.4122 13 7.5C12.9984 8.9582 12.4184 10.3562 11.3873 11.3873C10.3562 12.4184 8.9582 12.9984 7.5 13V13Z" fill="#006CBE" />
  <path d="M7.146 10.146L9.293 8H4V7H9.293L7.146 4.854L7.854 4.146L10.854 7.146V7.854L7.854 10.854L7.146 10.146Z" fill="#006CBE" />
</svg>