<?xml version="1.0"?>
<svg width="2048" height="2048" xmlns="http://www.w3.org/2000/svg" xmlns:svg="http://www.w3.org/2000/svg">
 <g class="layer">
  <title>Layer 1</title>
  <path d="m1191.41,1433.33l-567.7,0l0,-105.47q0,-53.44 20.7,-102.66q16.26,-39.38 48.79,-75.94t73.92,-74.53t81.31,-70.31t75.4,-68.91t56.18,-66.09t22.18,-66.09q0,-36.56 -28.09,-63.28t-66.53,-26.72q-34,0 -59.14,19.69t-34,52.03l-184.8,-36.56q8.87,-46.41 34,-85.78t65.05,-67.5t84.27,-45t94.62,-16.88q59.14,0 110.88,21.09t90.18,57.66t60.61,85.78t22.18,105.47q0,54.84 -16.26,98.44t-45.83,81.56t-65.05,71.72t-75.4,64.69t-75.4,64.69t-69.48,68.91l347.42,0l0,180zm-926.95,-693.28q-42.87,23.91 -100.53,43.59t-107.92,19.69l0,-180q16.26,0 45.83,-8.44t59.14,-21.09t53.22,-29.53t32.52,-30.94l187.76,0l0,900l-170.02,0l0,-693.28zm1364.56,693.28q-62.09,0 -119.75,-19.69t-110.88,-52.03l0,-178.59q29.57,21.09 51.74,36.56t47.31,25.31t50.27,14.06t66.53,4.22q32.52,0 62.09,-5.63t51.74,-21.09t36.96,-39.38t13.31,-59.06q0,-43.59 -35.48,-61.88t-82.79,-25.31t-96.1,-4.22t-78.35,2.81l0,-136.41l85.75,0q45.83,0 85.75,-9.84t66.53,-36.56t26.61,-80.16q0,-59.06 -36.96,-78.75t-94.62,-19.69q-59.14,0 -102.01,25.31t-85.75,60.47l0,-182.81q50.27,-32.34 112.36,-45t121.23,-12.66q53.22,0 103.49,14.06t88.7,40.78t63.57,68.91t23.65,97.03q0,67.5 -28.09,119.53t-91.66,85.78q65.05,21.09 106.44,74.53t41.4,119.53q0,66.09 -29.57,118.13t-76.88,87.19t-110.88,54.84t-125.66,19.69z" id="svg_1"/>
 </g>
</svg>