<?xml version="1.0"?>
<svg width="2048" height="2048" xmlns="http://www.w3.org/2000/svg" xmlns:svg="http://www.w3.org/2000/svg">
 <g class="layer">
  <title>Layer 1</title>
  <path d="m157.29,1513.4l-154.29,0l318.06,-916.84l158.35,0l316.7,916.84l-155.64,0l-75.79,-233.59l-334.3,0l-73.09,233.59zm238.2,-781.07q-2.71,14.6 -4.06,29.2t-6.77,29.2l-117.75,364.99l261.21,0l-119.1,-364.99q-4.06,-13.14 -5.41,-27.74t-5.41,-30.66l-2.71,0zm622.58,781.07l-138.05,0l0,-969.4l138.05,0l0,429.22l1.35,0q35.19,-62.78 85.27,-96.36t120.46,-33.58q64.96,0 110.98,26.28t77.15,73t43.31,103.66t13.53,121.18q0,70.08 -14.89,134.31t-48.72,115.34t-83.91,80.3t-124.52,30.66q-116.4,0 -178.65,-109.5l-1.35,0l0,94.9zm-1.35,-274.47q0,35.04 10.83,65.7t29.78,55.48t46.02,36.5t62.26,14.6q47.37,0 78.5,-21.9t50.08,-56.94t27.07,-78.84t8.12,-86.14q0,-37.96 -8.12,-74.46t-25.72,-67.16t-46.02,-46.72t-70.38,-17.52q-39.25,0 -69.03,16.06t-51.43,42.34t-31.13,62.78t-10.83,75.92l0,80.3zm855.37,289.07q-67.67,0 -123.16,-23.36t-94.74,-67.16t-60.9,-103.66t-21.65,-132.85q0,-80.3 23.01,-145.99t64.96,-112.42t102.86,-73t136.7,-26.28q37.9,0 74.44,7.3t71.73,23.36l0,138.69q-29.78,-23.36 -63.61,-36.5t-71.73,-14.6q-47.37,0 -83.91,17.52t-60.9,49.64t-39.25,73t-13.53,90.52q0,96.36 50.08,157.67t142.11,61.32q39.25,0 74.44,-14.6t66.32,-42.34l0,128.47q-39.25,24.82 -83.91,35.04t-89.33,10.22z" id="svg_1"/>
 </g>
</svg>