<svg xmlns="http://www.w3.org/2000/svg" viewBox="0 0 2048 2048">
  <path d="M2048 1024q0 141-36 272t-104 244-160 207-207 161-245 103-272 37q-141 0-272-36t-244-104-207-160-161-207-103-245-37-272q0-141 36-272t104-244 160-207 207-161T752 37t272-37q141 0 272 36t244 104 207 160 161 207 103 245 37 272zM360 1625q64 71 140 126t161 92 176 57 187 20q125 0 245-34t227-100q-20-19-39-42t-33-48-23-52-9-57q0-42 16-78t42-67 54-57 55-50 41-45 17-41q0-18-15-31t-33-14q-19 0-37 8t-37 19-36 19-35 9q-33 0-53-19t-27-51q-5-22-8-54t-9-65-11-63-17-48q-29-52-66-97t-70-96q-11-18-16-33t-6-37q0-29 12-53t34-44q21-20 43-38l28-26q22-19 43-38 57-53 109-109t104-114q-109-71-234-108t-256-38h-15q-7 0-16 1 17 30 33 70t28 82 20 85 8 77q0 47-12 92t-39 85q-23 34-48 56t-56 37-63 24-72 17q-23 5-45 15t-36 31q-9 14-12 31t-3 34q0 32 8 62t19 61 18 60 9 62q0 51-21 84t-56 55-76 34-83 22q-18 4-37 10t-35 17-29 25-16 36l-37 232zm-232-601q0 121 32 237t93 220q4-21 7-42l4-28q3-21 7-42 8-42 29-73t51-55 66-39 76-23q13-3 35-7t43-12 36-20 15-30q0-13-4-29t-9-33-11-33-10-29q-20-60-20-121 0-101 55-160t151-78q41-8 74-20t57-34 36-52 13-79q0-24-5-54t-14-62-20-61-22-51q-7-14-15-26l-10-18q-8-13-15-26-158 31-290 112T333 454 182 717t-54 307zm1792 0q0-96-20-189t-59-179-95-164-130-140q-42 48-83 92t-83 87-87 84-94 82q17 20 32 41t30 43q38 53 59 86t34 64 20 70 18 103q26-12 54-20t58-8q34 0 65 14t55 38 38 55 14 65q0 39-16 72t-42 63-55 56-54 51-42 49-17 49q0 17 8 34t21 33 26 30 26 24q76-64 135-142t100-165 62-183 22-195z" />
</svg>