<svg xmlns="http://www.w3.org/2000/svg" viewBox="0 0 2048 2048">
  <path d="M513 1280q-53 0-99-20t-82-54-55-82-21-100q0-53 20-100t56-81 81-55 100-20V384h383v160q0 26 10 49t27 41 41 28 50 10q27 0 50-10t40-27 28-41 10-50V384h382v384q55 0 102 19t81 54 53 81 20 102q0 55-19 102t-54 81-81 53-102 20v384h-382v-160q0-27-10-50t-27-40-41-28-50-10q-26 0-49 10t-41 27-28 41-10 50v160H513v-384zm-1-384q-26 0-49 10t-41 27-28 41-10 50q0 26 10 49t27 41 41 28 50 10h129v384h127v-32q0-53 20-99t55-82 81-55 100-20q53 0 99 20t82 55 55 81 20 100v32h126v-384h135q27 0 49-10t38-27 25-41 9-50q0-26-9-49t-24-41-38-28-50-10h-135V512h-126v32q0 53-20 99t-55 82-81 55-100 20q-53 0-99-20t-82-55-55-81-20-100v-32H641v384H512zM2045-4v2051H1V-4h2044zm-128 128H129v1795h1788V124z" />
</svg>