<svg xmlns="http://www.w3.org/2000/svg" viewBox="0 0 2048 2048">
  <path d="M1920 1856q0 26-19 45t-45 19q-26 0-45-19l-529-529q-94 79-210 121t-240 43q-97 0-187-25t-168-71-142-110-111-143-71-168-25-187q0-97 25-187t71-168 110-142 143-111 168-71 187-25q97 0 187 25t168 71 142 110 111 143 71 168 25 187q0 123-42 239t-122 211l529 529q19 19 19 45zM1408 832q0-79-20-152t-58-138-91-117-117-90-137-58-153-21q-119 0-224 45T425 425 302 608t-46 224q0 120 45 225t123 183 183 123 225 45q119 0 224-45t183-124 123-183 46-224zm-256-64q26 0 45 19t19 45q0 26-19 45t-45 19H512q-26 0-45-19t-19-45q0-26 19-45t45-19h640z" fill="white" />
</svg>