<svg xmlns="http://www.w3.org/2000/svg" viewBox="0 0 2048 2048">
  <path d="M1283 1373q-96 79-211 121t-240 42q-147 0-275-55t-223-150-151-224-55-275q0-97 25-187t71-169 110-142 142-110 168-71 188-25q97 0 187 25t168 71 143 110 110 142 71 169 25 187q0 124-42 239t-121 212l528 528q19 19 19 45t-19 45-45 19q-26 0-45-19l-528-528zm125-541q0-79-20-152t-58-138-91-117-117-90-137-58-153-21q-119 0-224 45T425 425 302 608t-46 224q0 120 45 225t123 183 183 123 225 45q119 0 224-45t183-124 123-183 46-224zm-640 64H512q-26 0-45-19t-19-45q0-26 19-45t45-19h256V512q0-26 19-45t45-19q26 0 45 19t19 45v256h256q26 0 45 19t19 45q0 26-19 45t-45 19H896v256q0 26-19 45t-45 19q-26 0-45-19t-19-45V896z" fill="white" />
</svg>