<svg
    id="b5bfbf48-10dd-4d21-8324-df7de0afa790"
    xmlns="http://www.w3.org/2000/svg"
    width="16"
    height="16"
    viewBox="0 0 16 16">
    <path
        d="M7.484,10.375a5.6,5.6,0,0,1,1.438.828,5.376,5.376,0,0,1,1.109,1.2,5.682,5.682,0,0,1,.711,1.461A5.5,5.5,0,0,1,11,15.5V16H10v-.5a4.385,4.385,0,0,0-.352-1.75,4.459,4.459,0,0,0-.968-1.43,4.654,4.654,0,0,0-1.43-.961A4.458,4.458,0,0,0,5.5,11a4.385,4.385,0,0,0-1.75.352,4.459,4.459,0,0,0-1.43.968,4.654,4.654,0,0,0-.961,1.43A4.458,4.458,0,0,0,1,15.5V16H0v-.5a5.391,5.391,0,0,1,.969-3.1,5.7,5.7,0,0,1,1.109-1.187,5.614,5.614,0,0,1,1.438-.836,3.359,3.359,0,0,1-.633-.563,3.551,3.551,0,0,1-.477-.687,3.387,3.387,0,0,1-.3-.781A3.858,3.858,0,0,1,2,7.5a3.391,3.391,0,0,1,.273-1.359,3.525,3.525,0,0,1,1.86-1.86A3.5,3.5,0,0,1,5.5,4a3.391,3.391,0,0,1,1.359.273,3.525,3.525,0,0,1,1.86,1.86A3.5,3.5,0,0,1,9,7.5a3.424,3.424,0,0,1-.1.836,3.311,3.311,0,0,1-.3.781,4.035,4.035,0,0,1-.477.695A3.076,3.076,0,0,1,7.484,10.375ZM5.5,10a2.424,2.424,0,0,0,.969-.2,2.523,2.523,0,0,0,.789-.532,2.6,2.6,0,0,0,.539-.8,2.478,2.478,0,0,0,.008-1.946,2.46,2.46,0,0,0-.539-.789,2.746,2.746,0,0,0-.8-.539A2.348,2.348,0,0,0,5.5,5a2.424,2.424,0,0,0-.969.2A2.537,2.537,0,0,0,3.2,6.531a2.505,2.505,0,0,0,0,1.938,2.631,2.631,0,0,0,.532.8,2.436,2.436,0,0,0,.8.539A2.484,2.484,0,0,0,5.5,10ZM16,0V8H14l-3,3V8H10V7h2V8.586L13.586,7H15V1H5V2.8c-.167.021-.333.047-.5.078a2.926,2.926,0,0,0-.5.141V0Z"
        fill="black" />
</svg>
