<svg xmlns="http://www.w3.org/2000/svg" viewBox="0 0 2048 2048">
    <path
        d="M640 1280h456q-20 30-37 63t-35 65v384H0V128h1920v968q-30-20-63-37t-65-35H640v256zm1152-384V640h-768v256h768zm-256-640v256h256V256h-256zm-896 0v256h768V256H640zm-512 0v256h384V256H128zm0 384v256h768V640H128zm0 384v256h384v-256H128zm768 640v-256H128v256h768zm1018-125q6 30 6 61t-6 61l124 51-49 119-124-52q-35 51-86 86l52 124-119 49-51-124q-30 6-61 6t-61-6l-51 124-119-49 52-124q-51-35-86-86l-124 52-49-119 124-51q-6-30-6-61t6-61l-124-51 49-119 124 52q35-51 86-86l-52-124 119-49 51 124q30-6 61-6t61 6l51-124 119 49-52 124q26 17 47 38t39 48l124-52 49 119-124 51zm-122 61q0-40-15-75t-41-61-61-41-75-15q-40 0-75 15t-61 41-41 61-15 75q0 40 15 75t41 61 61 41 75 15q40 0 75-15t61-41 41-61 15-75z"
        fill="black" />
</svg>
