<svg width="16" height="16" viewBox="0 0 16 16" fill="none" xmlns="http://www.w3.org/2000/svg">
    <path
        d="M7.5 4H6V1.5C6 1.36739 5.9473 1.24021 5.8536 1.14645C5.7598 1.05268 5.6326 1 5.5 1C5.3674 1 5.2402 1.05268 5.1464 1.14645C5.0527 1.24021 5 1.36739 5 1.5V4H3V1.5C3 1.36739 2.9473 1.24021 2.8536 1.14645C2.7598 1.05268 2.6326 1 2.5 1C2.3674 1 2.2402 1.05268 2.1464 1.14645C2.0527 1.24021 2 1.36739 2 1.5V4H0.5L0 4.5V8C0.00284 8.97143 0.3599 9.90848 1.00424 10.6355C1.64857 11.3625 2.5359 11.8295 3.5 11.949V16H4.5V11.949C5.4641 11.8295 6.3514 11.3625 6.9958 10.6355C7.6401 9.90848 7.9972 8.97143 8 8V4.5L7.5 4ZM7 8C7 8.79565 6.6839 9.55871 6.1213 10.1213C5.5587 10.6839 4.7956 11 4 11C3.2044 11 2.4413 10.6839 1.87868 10.1213C1.31607 9.55871 1 8.79565 1 8V5H7V8Z"
        fill="#CCCCCC" />
    <path d="M16 13H13V16H12V13H9V12H12V9H13V12H16V13Z" fill="#CCCCCC" />
</svg>
