<svg width="16" height="16" viewBox="0 0 20 20" fill="none" xmlns="http://www.w3.org/2000/svg">
    <!-- Connect/plug icon bottom-left -->
    <g transform="translate(0, 8) scale(0.65)">
        <path
            fill-rule="evenodd"
            clip-rule="evenodd"
            d="M7 1H6v3H4.5l-.5.5V8a4 4 0 0 0 3.5 3.969V15h1v-3.031A4 4 0 0 0 12 8V4.5l-.5-.5H10V1H9v3H7V1zm3.121 9.121A3 3 0 0 1 5 8V5h6v3a3 3 0 0 1-.879 2.121z"
            fill="#212121" />
    </g>
    <!-- Big M badge top-right -->
    <circle cx="13" cy="7" r="7" fill="#000" />
    <text
        x="13"
        y="7.3"
        text-anchor="middle"
        dominant-baseline="central"
        font-family="sans-serif"
        font-size="9"
        font-weight="900"
        fill="white">
        M
    </text>
</svg>
