<svg width="48" height="48" viewBox="0 0 16 16" fill="none" xmlns="http://www.w3.org/2000/svg">
    <path
        d="M5 9.97758L5 12.5C5 13.925 7.149 15 10 15C12.851 15 15 13.925 15 12.5V3.5C15 2.075 12.851 1 10 1C9.5825 1 9.18005 1.02305 8.7972 1.06688C9.03225 1.36071 9.23779 1.67917 9.40933 2.01777C9.59985 2.00615 9.79686 2 10 2C12.441 2 14 2.888 14 3.5C14 4.112 12.441 5 10 5C9.99252 5 9.98505 4.99999 9.97758 4.99997C9.94645 5.34543 9.88338 5.68167 9.79134 6.00573C9.86085 6.0048 9.93041 6.00289 10 6C11.3991 6.05816 12.7859 5.71872 14 5.021V12.5C14 13.111 12.441 14 10 14C7.558 14 6 13.111 6 12.5V9.79297C5.67772 9.88412 5.34341 9.94663 5 9.97758Z"
        fill="#212121" />
    <path
        fill-rule="evenodd"
        clip-rule="evenodd"
        d="M9 4.5C9 6.98528 6.98528 9 4.5 9C2.01472 9 0 6.98528 0 4.5C0 2.01472 2.01472 0 4.5 0C6.98528 0 9 2.01472 9 4.5ZM4.5 2C4.77614 2 5 2.22386 5 2.5V4H6.5C6.77614 4 7 4.22386 7 4.5C7 4.77614 6.77614 5 6.5 5H5V6.5C5 6.77614 4.77614 7 4.5 7C4.22386 7 4 6.77614 4 6.5V5H2.5C2.22386 5 2 4.77614 2 4.5C2 4.22386 2.22386 4 2.5 4H4V2.5C4 2.22386 4.22386 2 4.5 2Z"
        fill="#212121" />
</svg>
