<svg width="48" height="48" viewBox="0 0 16 16" fill="none" xmlns="http://www.w3.org/2000/svg">
    <g clip-path="url(#dropDatabaseIconClip)">
        <path
            d="M4 6.12169L3 5.121V12.5C3 13.925 5.149 15 8 15C10.851 15 13 13.925 13 12.5V3.5C13 2.075 10.851 1 8 1C7.61736 1 7.24737 1.01936 6.89352 1.05634C6.81876 1.24359 6.70632 1.41566 6.56099 1.56099L5.86542 2.25608C6.46038 2.10003 7.1804 2 8 2C10.441 2 12 2.888 12 3.5C12 4.112 10.441 5 8 5C7.60625 5 7.23544 4.97689 6.89043 4.93557C6.92591 5.02292 6.95323 5.11382 6.97181 5.20717C7.02227 5.46068 7.00625 5.72226 6.92622 5.9667C7.28152 6.00363 7.64036 6.01495 8 6C9.39905 6.05816 10.7859 5.71872 12 5.021V12.5C12 13.111 10.441 14 8 14C5.558 14 4 13.111 4 12.5V6.12169Z"
            fill="#212121" />
        <path
            d="M5.85402 5.14602C5.94791 5.23991 6.00065 5.36725 6.00065 5.50002C6.00065 5.6328 5.94791 5.76013 5.85402 5.85402C5.76013 5.94791 5.6328 6.00065 5.50002 6.00065C5.36725 6.00065 5.23991 5.94791 5.14602 5.85402L3.00002 3.70702L0.854021 5.85402C0.760135 5.94791 0.632797 6.00065 0.500021 6.00065C0.367245 6.00065 0.239908 5.94791 0.146021 5.85402C0.0521346 5.76013 -0.000610349 5.6328 -0.000610352 5.50002C-0.000610354 5.36725 0.0521346 5.23991 0.146021 5.14602L2.29302 3.00002L0.146021 0.854021C0.0521346 0.760135 -0.000610353 0.632797 -0.000610352 0.500021C-0.000610351 0.367245 0.0521346 0.239908 0.146021 0.146021C0.239908 0.0521346 0.367245 -0.000610351 0.500021 -0.000610352C0.632797 -0.000610353 0.760135 0.0521346 0.854021 0.146021L3.00002 2.29302L5.14602 0.146021C5.23991 0.0521346 5.36725 -0.000610354 5.50002 -0.000610352C5.6328 -0.000610349 5.76013 0.0521346 5.85402 0.146021C5.94791 0.239908 6.00065 0.367245 6.00065 0.500021C6.00065 0.632797 5.94791 0.760135 5.85402 0.854021L3.70702 3.00002L5.85402 5.14602Z"
            fill="#C50F1F" />
    </g>
    <defs>
        <clipPath id="dropDatabaseIconClip">
            <rect width="16" height="16" fill="white" />
        </clipPath>
    </defs>
</svg>
