<svg width="144" height="144" viewBox="0 0 144 144" fill="none" xmlns="http://www.w3.org/2000/svg">
    <path
        d="M90 81.0703L72.0703 99H54V126H9V18H126V52.1016C124.266 52.3359 122.719 52.6875 121.359 53.1562C120 53.625 118.547 54.3516 117 55.3359V45H90V63H108.07L99.0703 72H90V81.0703ZM81 63V45H54V63H81ZM45 117V99H18V117H45ZM45 90V72H18V90H45ZM45 63V45H18V63H45ZM18 36H117V27H18V36ZM54 72V90H81V72H54ZM144 76.9219C144 78.75 143.648 80.5313 142.945 82.2656C142.242 84 141.234 85.5234 139.922 86.8359L89.5078 137.391L63 144L69.6094 117.492L120.023 67.0078C121.336 65.6953 122.859 64.7109 124.594 64.0547C126.328 63.3984 128.109 63.0469 129.938 63C131.906 63 133.734 63.3516 135.422 64.0547C137.109 64.7578 138.609 65.7422 139.922 67.0078C141.234 68.2734 142.219 69.75 142.875 71.4375C143.531 73.125 143.906 74.9531 144 76.9219ZM135 76.9219C135 75.4688 134.531 74.2969 133.594 73.4062C132.656 72.5156 131.438 72.0469 129.938 72C129.281 72 128.648 72.0937 128.039 72.2812C127.43 72.4688 126.891 72.8203 126.422 73.3359L77.7656 122.133L75.375 131.625L84.8672 129.234L133.523 80.5078C134.508 79.5234 135 78.3281 135 76.9219Z"
        fill="white" />
</svg>
