<svg xmlns="http://www.w3.org/2000/svg" viewBox="0 0 2048 2048">
  <path d="M256 1216q0-90 34-172t97-145l211-211 634 634-211 211q-63 63-145 97t-172 34q-73 0-141-22t-127-67l-327 326-90-90 326-327q-44-58-66-126t-23-142zm448 323q63 0 110-17t88-48 76-69 79-81L596 863q-41 41-80 78t-71 77-49 88-19 110q0 69 25 128t70 102 104 68 128 25zm960-835q0 89-34 171t-97 146l-212 211-633-633 211-212q63-63 146-95t171-32q72 0 141 21t127 64l327-326 90 90-326 327q44 58 66 126t23 142zm-340 354q41-40 80-77t70-78 50-89 19-110q0-69-25-128t-70-102-104-68-128-25q-63 0-110 18t-88 47-77 69-79 81l462 462zm724 734h-256v256h-128v-256h-256v-128h256v-256h128v256h256v128z" fill="#ffffff"/>
</svg>