<svg width="16" height="16" viewBox="0 0 16 16" fill="none" xmlns="http://www.w3.org/2000/svg">
    <g clip-path="url(#clip0_7199_53836)">
        <path
            d="M5.85355 6.14645C5.65829 5.95118 5.34171 5.95118 5.14645 6.14645L4.5 6.79289L3.85355 6.14645C3.65829 5.95118 3.34171 5.95118 3.14645 6.14645C2.95118 6.34171 2.95118 6.65829 3.14645 6.85355L3.79289 7.5L3.14645 8.14645C2.95118 8.34171 2.95118 8.65829 3.14645 8.85355C3.34171 9.04882 3.65829 9.04882 3.85355 8.85355L4.5 8.20711L5.14645 8.85355C5.34171 9.04882 5.65829 9.04882 5.85355 8.85355C6.04882 8.65829 6.04882 8.34171 5.85355 8.14645L5.20711 7.5L5.85355 6.85355C6.04882 6.65829 6.04882 6.34171 5.85355 6.14645Z"
            fill="#fff" />
        <path
            d="M9.14645 6.14645C9.34171 5.95118 9.65829 5.95118 9.85355 6.14645C10.0488 6.34171 10.0488 6.65829 9.85355 6.85355L9.20711 7.5L9.85355 8.14645C10.0488 8.34171 10.0488 8.65829 9.85355 8.85355C9.65829 9.04882 9.34171 9.04882 9.14645 8.85355L8.5 8.20711L7.85355 8.85355C7.65829 9.04882 7.34171 9.04882 7.14645 8.85355C6.95118 8.65829 6.95118 8.34171 7.14645 8.14645L7.79289 7.5L7.14645 6.85355C6.95118 6.65829 6.95118 6.34171 7.14645 6.14645C7.34171 5.95118 7.65829 5.95118 7.85355 6.14645L8.5 6.79289L9.14645 6.14645Z"
            fill="#fff" />
        <path
            d="M3.5 11H9.3659L8.36555 12H3.5C2.11929 12 1 10.8807 1 9.5V5.5C1 4.11929 2.11929 3 3.5 3H12.5C13.8807 3 15 4.11929 15 5.5V7.05763C14.8156 7.01579 14.6257 6.9942 14.4335 6.9942C14.2873 6.9942 14.1423 7.00672 14 7.03116V5.5C14 4.67157 13.3284 4 12.5 4H3.5C2.67157 4 2 4.67157 2 5.5V9.5C2 10.3284 2.67157 11 3.5 11Z"
            fill="#fff" />
        <path
            d="M15.5449 8.45396C15.2519 8.16162 14.8549 7.99744 14.4409 7.99744C14.027 7.99744 13.63 8.16162 13.3369 8.45396L9.04895 12.7414C8.69299 13.0975 8.44065 13.5437 8.31895 14.0323L8.01895 15.2431C7.99361 15.3452 7.99509 15.452 8.02324 15.5534C8.0514 15.6547 8.10528 15.747 8.17964 15.8213C8.25401 15.8957 8.34633 15.9496 8.44766 15.9777C8.54899 16.0059 8.65588 16.0074 8.75795 15.982L9.96895 15.6821C10.4572 15.5598 10.9031 15.3071 11.2589 14.9512L15.5479 10.6637C15.6931 10.5185 15.8081 10.3461 15.8865 10.1564C15.9649 9.96675 16.0051 9.76346 16.0049 9.5582C16.0046 9.35295 15.9638 9.14976 15.8849 8.96028C15.806 8.7708 15.6905 8.59875 15.5449 8.45396V8.45396Z"
            fill="#fff" />
    </g>
    <defs>
        <clipPath id="clip0_7199_53836">
            <rect width="16" height="16" />
        </clipPath>
    </defs>
</svg>
