<svg viewBox="0 0 16 16" fill="none" xmlns="http://www.w3.org/2000/svg">
  <g opacity="0.75">
    <path d="M10 4V5H7V4H10ZM7 9H10V8H7V9ZM7 11H10V10H7V11Z" fill="#fff" />
  </g>
  <path opacity="0.1" d="M3 8.474C2.6717 8.474 2.34661 8.40934 2.04329 8.2837C1.73998 8.15806 1.46438 7.97391 1.23223 7.74177C0.763392 7.27293 0.5 6.63704 0.5 5.974V3.5H5.5V5.974C5.5 6.63704 5.23661 7.27293 4.76777 7.74177C4.29893 8.21061 3.66304 8.474 3 8.474V8.474Z" fill="#fff" />
  <path d="M5 3V1C5 0.867392 4.94732 0.740215 4.85355 0.646447C4.75979 0.552678 4.63261 0.5 4.5 0.5C4.36739 0.5 4.24021 0.552678 4.14645 0.646447C4.05268 0.740215 4 0.867392 4 1V3H2V1C2 0.867392 1.94732 0.740215 1.85355 0.646447C1.75979 0.552678 1.63261 0.5 1.5 0.5C1.36739 0.5 1.24021 0.552678 1.14645 0.646447C1.05268 0.740215 1 0.867392 1 1V3H0V5.974C0.000245693 6.68278 0.251437 7.36859 0.709048 7.90985C1.16666 8.45111 1.80113 8.81287 2.5 8.931V12H3.5V8.931C4.19887 8.81287 4.83334 8.45111 5.29095 7.90985C5.74856 7.36859 5.99975 6.68278 6 5.974V3H5ZM5 5.974C5 6.50443 4.78929 7.01314 4.41421 7.38821C4.03914 7.76329 3.53043 7.974 3 7.974C2.46957 7.974 1.96086 7.76329 1.58579 7.38821C1.21071 7.01314 1 6.50443 1 5.974V4H5V5.974Z" fill="#fff" />
  <path opacity="0.1" d="M15 14.5H2L2.75 13H5V12.5L5.5 13H11.5L12 12.5V10.5H13L15 14.5Z" fill="#fff" />
  <path d="M15.447 14.276L15 15H2L1.553 14.276L2.191 13H3.309L2.809 14H14.191L12.691 11H12V10H13L13.447 10.276L15.447 14.276Z" fill="#fff" />
  <path opacity="0.1" d="M11.5 2.5V12.5H5.5V9.1C5.96914 8.72541 6.34768 8.24975 6.6074 7.7085C6.86712 7.16724 7.00132 6.57434 7 5.974V2H6V1.653C6.14967 1.55752 6.32253 1.50462 6.5 1.5H10.5C10.7652 1.5 11.0196 1.60536 11.2071 1.79289C11.3946 1.98043 11.5 2.23478 11.5 2.5Z" fill="#fff" />
  <path d="M12 2.5V12.5L11.5 13H5.5L5 12.5V9.437C5.37601 9.21989 5.71383 8.94253 6 8.616V12H11V2.5C11 2.36739 10.9473 2.24021 10.8536 2.14645C10.7598 2.05268 10.6326 2 10.5 2H6V1.092C6.16013 1.03278 6.32928 1.00166 6.5 1H10.5C10.8978 1 11.2794 1.15804 11.5607 1.43934C11.842 1.72064 12 2.10218 12 2.5Z" fill="#fff" />
</svg>