<svg viewBox="0 0 16 16" fill="none" xmlns="http://www.w3.org/2000/svg">
    <g opacity="0.75">
        <path d="M13 8.5V11H12V9H5V11H4V8.5L4.5 8H8V6H9V8H12.5L13 8.5Z" fill="#fff" />
    </g>
    <path
        opacity="0.1"
        d="M2.5 11.5H6.5V14.5H2.5V11.5ZM14.5 11.5V14.5H10.5V11.5H14.5ZM10.5 2.5V5.5H6.5V2.5H10.5Z"
        fill="#fff" />
    <path
        d="M6.5 11H2.5L2 11.5V14.5L2.5 15H6.5L7 14.5V11.5L6.5 11ZM6 14H3V12H6V14ZM14.5 11H10.5L10 11.5V14.5L10.5 15H14.5L15 14.5V11.5L14.5 11ZM14 14H11V12H14V14ZM10.5 2H6.5L6 2.5V5.5L6.5 6H10.5L11 5.5V2.5L10.5 2ZM10 5H7V3H10V5Z"
        fill="#fff" />
</svg>
