<svg xmlns="http://www.w3.org/2000/svg" viewBox="0 0 16 16" enable-background="new 0 0 16 16"><style type="text/css">.icon-canvas-transparent{opacity:0;fill:#F6F6F6;} .icon-vs-out{fill:#F6F6F6;} .icon-vs-bg{fill:#424242;}</style><path class="icon-canvas-transparent" d="M16 16h-16v-16h16v16z" id="canvas"/><path class="icon-vs-out" d="M10.435 14h-5.942c-.463.617-1.198 1-1.993 1-1.378 0-2.5-1.121-2.5-2.5s1.122-2.5 2.5-2.5c.795 0 1.53.383 1.993 1h5.941l1-1-1-1h-5.941c-.463.617-1.198 1-1.993 1-1.378 0-2.5-1.122-2.5-2.5s1.122-2.5 2.5-2.5c.795 0 1.53.383 1.993 1h5.941l1-1-1-1h-5.941c-.463.617-1.198 1-1.993 1-1.378 0-2.5-1.122-2.5-2.5s1.122-2.5 2.5-2.5c.795 0 1.53.383 1.993 1h5.941l1-1h2.07l2.496 2.495v.01l-2.495 2.495 2.495 2.495v.01l-2.495 2.495 2.495 2.495v.01l-3.495 3.495h-.07l-2-2z" id="outline"/><g id="iconBg"><path class="icon-vs-bg" d="M1 2.5c0-.828.672-1.5 1.5-1.5.652 0 1.202.419 1.408 1h8.769l-.914-.914.707-.707 2.121 2.121-2.121 2.121-.707-.707.914-.914h-8.769c-.206.581-.756 1-1.408 1-.828 0-1.5-.672-1.5-1.5zm10.763 3.586l.914.914h-8.769c-.206-.581-.756-1-1.408-1-.828 0-1.5.672-1.5 1.5s.672 1.5 1.5 1.5c.652 0 1.202-.419 1.408-1h8.769l-.914.914.707.707 2.121-2.121-2.121-2.121-.707.707zm0 5l.914.914h-8.769c-.207-.581-.756-1-1.408-1-.828 0-1.5.672-1.5 1.5s.672 1.5 1.5 1.5c.652 0 1.202-.419 1.408-1h8.769l-.914.914.707.707 2.121-2.121-2.121-2.121-.707.707z"/></g></svg>