<svg width="48" height="48" viewBox="0 0 48 48" fill="none" xmlns="http://www.w3.org/2000/svg">
<path d="M15.0357 5.36045C15.3101 4.5474 16.0725 4 16.9306 4H29.4948L16.454 42.6396C16.1796 43.4526 15.4171 44 14.559 44H4.78065C3.41238 44 2.44812 42.6569 2.88566 41.3604L15.0357 5.36045Z" fill="url(#paint0_linear_9053_1079)"/>
<path d="M35.1214 30H15.3204C14.4884 30 14.0867 31.0191 14.695 31.5868L27.4185 43.4621C27.7888 43.8078 28.2766 44 28.7831 44H39.9948L35.1214 30Z" fill="#0078D4"/>
<path d="M29.4948 4H15.4948L1.99481 44H15.9948L18.8693 35.4829L27.9948 44H39.9948L35.1214 30H20.7198L29.4948 4Z" fill="url(#paint1_linear_9053_1079)"/>
<path d="M32.954 5.36044C32.6796 4.5474 31.9171 4 31.059 4H16.9948H17.059C17.9171 4 18.6796 4.5474 18.954 5.36045L31.104 41.3604C31.5415 42.6569 30.5772 44 29.209 44H28.9948H43.209C44.5772 44 45.5415 42.6569 45.104 41.3604L32.954 5.36044Z" fill="url(#paint2_linear_9053_1079)"/>
<defs>
<linearGradient id="paint0_linear_9053_1079" x1="16.8451" y1="5.38454" x2="3.79919" y2="43.9251" gradientUnits="userSpaceOnUse">
<stop stop-color="#114A8B"/>
<stop offset="1" stop-color="#0669BC"/>
</linearGradient>
<linearGradient id="paint1_linear_9053_1079" x1="27.28" y1="30.0107" x2="24.1868" y2="31.0658" gradientUnits="userSpaceOnUse">
<stop stop-opacity="0.3"/>
<stop offset="0.0711768" stop-opacity="0.2"/>
<stop offset="0.321031" stop-opacity="0.1"/>
<stop offset="0.623053" stop-opacity="0.05"/>
<stop offset="1" stop-opacity="0"/>
</linearGradient>
<linearGradient id="paint2_linear_9053_1079" x1="25.116" y1="5.3846" x2="39.4362" y2="43.5372" gradientUnits="userSpaceOnUse">
<stop stop-color="#3CCBF4"/>
<stop offset="1" stop-color="#2892DF"/>
</linearGradient>
</defs>
</svg>
