<svg width="20" height="20" viewBox="0 0 20 20" fill="none" xmlns="http://www.w3.org/2000/svg">
<path fill-rule="evenodd" clip-rule="evenodd" fill="white" d="M7.02528 0.4902V0.490067H7.05254H13.0018C13.5852 0.490067 14.1037 0.862249 14.2902 1.41505L19.4534 16.7132C19.7509 17.5946 19.0952 18.5078 18.1649 18.5078H12.3371V18.5026C12.2972 18.5061 12.2567 18.5078 12.2157 18.5078H12.1933C11.9012 18.5078 11.6169 18.4138 11.3824 18.2396L7.58436 15.4182L6.85375 17.583C6.66717 18.1358 6.14875 18.508 5.56532 18.508H1.83498C0.904676 18.508 0.249061 17.5948 0.546554 16.7133L5.70967 1.41519C5.89624 0.862385 6.41466 0.4902 6.9981 0.4902H7.02528ZM6.50171 13.3435L11.9906 17.4209C12.0492 17.4645 12.1203 17.488 12.1933 17.488H12.2157C12.4482 17.488 12.6121 17.2597 12.5378 17.0393L9.75692 8.79976L8.64445 11.6791L8.51843 12.0053H8.16878H4.7211L6.50171 13.3435ZM18.1649 17.488H13.5332C13.5968 17.2438 13.5931 16.977 13.5041 16.7132L8.373 1.50994H13.0018C13.1477 1.50994 13.2773 1.60299 13.3239 1.74119L18.487 17.0393C18.5614 17.2597 18.3975 17.488 18.1649 17.488Z"/>
</svg>
