<svg width="62" height="64" viewBox="0 0 62 64" fill="none" xmlns="http://www.w3.org/2000/svg">
<path d="M42.7071 1.29289C42.3166 0.902369 41.6834 0.902369 41.2929 1.29289C40.9024 1.68342 40.9024 2.31658 41.2929 2.70711L43.5921 5.00628C36.6011 5.22177 31 10.9568 31 18C31 25.1797 36.8203 31 44 31C51.1797 31 57 25.1797 57 18C57 17.9731 56.9999 17.9463 56.9998 17.9194C56.9966 17.4002 56.561 17 56.0417 17H55.9565C55.4186 17 55 17.4621 55 18C55 24.0751 50.0751 29 44 29C37.9249 29 33 24.0751 33 18C33 12.0662 37.6983 7.22981 43.5778 7.00795L41.2929 9.29289C40.9024 9.68342 40.9024 10.3166 41.2929 10.7071C41.6834 11.0976 42.3166 11.0976 42.7071 10.7071L46.7071 6.70711C47.0976 6.31658 47.0976 5.68342 46.7071 5.29289L42.7071 1.29289Z" fill="url(#paint0_linear_4185_1186)"/>
<path d="M50.7071 14.7071C51.0976 14.3166 51.0976 13.6834 50.7071 13.2929C50.3166 12.9024 49.6834 12.9024 49.2929 13.2929L44 18.5858L41.7071 16.2929C41.3166 15.9024 40.6834 15.9024 40.2929 16.2929C39.9024 16.6834 39.9024 17.3166 40.2929 17.7071L43.2929 20.7071C43.6834 21.0976 44.3166 21.0976 44.7071 20.7071L50.7071 14.7071Z" fill="url(#paint1_linear_4185_1186)"/>
<path d="M8 23.9999C9.20616 25.1733 10.6773 26.0487 12.0097 26.6584C15.2717 28.1512 19.5145 28.9756 24 28.9756C28.4855 28.9756 32.7283 28.1512 35.9903 26.6584C37.3227 26.0487 38.7938 25.1733 40 23.9999V48.25H39.9932C39.8542 50.7768 37.6196 52.6879 34.95 53.9096C32.0832 55.2215 28.2106 56 24 56C19.7894 56 15.9168 55.2215 13.05 53.9096C10.3804 52.6879 8.14576 50.7768 8.00685 48.25H8V23.9999Z" fill="url(#paint2_linear_4185_1186)"/>
<path d="M8 23.9999C9.20616 25.1733 10.6773 26.0487 12.0097 26.6584C15.2717 28.1512 19.5145 28.9756 24 28.9756C28.4855 28.9756 32.7283 28.1512 35.9903 26.6584C37.3227 26.0487 38.7938 25.1733 40 23.9999V48.25H39.9932C39.8542 50.7768 37.6196 52.6879 34.95 53.9096C32.0832 55.2215 28.2106 56 24 56C19.7894 56 15.9168 55.2215 13.05 53.9096C10.3804 52.6879 8.14576 50.7768 8.00685 48.25H8V23.9999Z" fill="url(#paint3_linear_4185_1186)" fill-opacity="0.7"/>
<path d="M13.05 18.0904C15.9168 16.7785 19.7894 16 24 16C28.2106 16 32.0832 16.7785 34.95 18.0904C37.7069 19.352 40 21.3489 40 24C40 26.6511 37.7069 28.648 34.95 29.9096C32.0832 31.2215 28.2106 32 24 32C19.7894 32 15.9168 31.2215 13.05 29.9096C10.2931 28.648 8 26.6511 8 24C8 21.3489 10.2931 19.352 13.05 18.0904Z" fill="url(#paint4_linear_4185_1186)"/>
<defs>
<linearGradient id="paint0_linear_4185_1186" x1="31" y1="2.76471" x2="40.1278" y2="35.8883" gradientUnits="userSpaceOnUse">
<stop offset="0.163462" stop-color="#B5B5B5"/>
<stop offset="1" stop-color="#85C3F8"/>
</linearGradient>
<linearGradient id="paint1_linear_4185_1186" x1="50.6563" y1="13.4" x2="37.0799" y2="20.1491" gradientUnits="userSpaceOnUse">
<stop stop-color="#5A91FF"/>
<stop offset="1" stop-color="#FF00D0"/>
</linearGradient>
<linearGradient id="paint2_linear_4185_1186" x1="15.5545" y1="16.791" x2="32.8697" y2="53.1532" gradientUnits="userSpaceOnUse">
<stop stop-color="#29C3FF"/>
<stop offset="1" stop-color="#367AF2"/>
</linearGradient>
<linearGradient id="paint3_linear_4185_1186" x1="28.9524" y1="27.9298" x2="35.2943" y2="59.4416" gradientUnits="userSpaceOnUse">
<stop offset="0.53288" stop-color="#FF6CE8" stop-opacity="0"/>
<stop offset="1" stop-color="#FF6CE8"/>
</linearGradient>
<linearGradient id="paint4_linear_4185_1186" x1="52" y1="40" x2="33.509" y2="6.34346" gradientUnits="userSpaceOnUse">
<stop stop-color="#58AAFE"/>
<stop offset="1" stop-color="#6CE0FF"/>
</linearGradient>
</defs>
</svg>
