<svg width="120" height="119" xmlns="http://www.w3.org/2000/svg" xmlns:xlink="http://www.w3.org/1999/xlink" xml:space="preserve" overflow="hidden"><defs><linearGradient x1="654.75" y1="624.1" x2="630.087" y2="644.528" gradientUnits="userSpaceOnUse" spreadMethod="pad" id="fill0"><stop offset="0" stop-color="#0094F0" stop-opacity="1"/><stop offset="0.243047" stop-color="#0078D4" stop-opacity="1"/><stop offset="0.584404" stop-color="#2052CB" stop-opacity="1"/><stop offset="0.830639" stop-color="#312A9A" stop-opacity="1"/><stop offset="1" stop-color="#312A9A" stop-opacity="1"/></linearGradient><radialGradient cx="0" cy="0" r="1" gradientUnits="userSpaceOnUse" spreadMethod="pad" id="fill1" gradientTransform="matrix(-29.5 21.7564 -38.6781 -52.4445 651.8 636.822)"><stop offset="0" stop-color="#3BD5FF" stop-opacity="1"/><stop offset="1" stop-color="#0078D4" stop-opacity="1"/></radialGradient><radialGradient cx="0" cy="0" r="1" gradientUnits="userSpaceOnUse" spreadMethod="pad" id="fill2" gradientTransform="matrix(-26.55 17.7 -29.8609 -44.7913 659.175 634.425)"><stop offset="0" stop-color="#DECBFF" stop-opacity="0.9"/><stop offset="1" stop-color="#DECBFF" stop-opacity="0"/></radialGradient><linearGradient x1="650.325" y1="601.975" x2="622.385" y2="632.396" gradientUnits="userSpaceOnUse" spreadMethod="pad" id="fill3"><stop offset="0" stop-color="#0FAFFF" stop-opacity="1"/><stop offset="0.162714" stop-color="#0094F0" stop-opacity="1"/><stop offset="0.563871" stop-color="#2052CB" stop-opacity="1"/><stop offset="0.764283" stop-color="#312A9A" stop-opacity="1"/><stop offset="1" stop-color="#312A9A" stop-opacity="1"/></linearGradient><radialGradient cx="0" cy="0" r="1" gradientUnits="userSpaceOnUse" spreadMethod="pad" id="fill4" gradientTransform="matrix(-22.359 20.4667 -31.8793 -34.8268 639.593 615.433)"><stop offset="0" stop-color="#3BD5FF" stop-opacity="1"/><stop offset="1" stop-color="#0078D4" stop-opacity="1"/></radialGradient><radialGradient cx="0" cy="0" r="1" gradientUnits="userSpaceOnUse" spreadMethod="pad" id="fill5" gradientTransform="matrix(-22.1249 13.2751 -21.2491 -35.4149 644.425 613.775)"><stop offset="0" stop-color="#DECBFF" stop-opacity="0.9"/><stop offset="1" stop-color="#D1D1FF" stop-opacity="0"/></radialGradient></defs><g transform="translate(-580 -570)"><g><g><g><g><g><g><g><path d="M640 641.8C653.034 641.8 663.6 645.762 663.6 650.65L663.6 632.95C663.6 628.062 653.034 624.1 640 624.1L634.1 624.1 634.1 641.8 640 641.8Z" fill="url(#fill0)" fill-rule="nonzero"/><path d="M663.6 632.95C663.6 637.838 653.034 641.8 640 641.8 632.051 641.8 625.02 640.326 620.744 638.068 618.428 637.041 616.4 638.596 616.4 640.705L616.4 650.65C616.4 655.538 626.966 659.5 640 659.5 653.034 659.5 663.6 655.538 663.6 650.65L663.6 632.95Z" fill="url(#fill1)" fill-rule="nonzero"/><path d="M663.6 632.95C663.6 637.838 653.034 641.8 640 641.8 632.051 641.8 625.02 640.326 620.744 638.068 618.428 637.041 616.4 638.596 616.4 640.705L616.4 650.65C616.4 655.538 626.966 659.5 640 659.5 653.034 659.5 663.6 655.538 663.6 650.65L663.6 632.95Z" fill="url(#fill2)" fill-rule="nonzero"/><path d="M640 600.5C653.034 600.5 663.6 604.462 663.6 609.35L663.6 619.375C663.6 620.747 662.171 623.155 659.253 621.93 654.976 619.673 647.947 618.2 640 618.2 626.966 618.2 616.4 622.162 616.4 627.05L616.4 609.35C616.4 604.462 626.966 600.5 640 600.5Z" fill="url(#fill3)" fill-rule="nonzero"/><path d="M640 618.2C626.966 618.2 616.4 614.238 616.4 609.35L616.4 627.05C616.4 631.938 626.966 635.9 640 635.9L641.475 635.9C643.919 635.9 645.9 633.919 645.9 631.475L645.9 622.625C645.9 620.181 643.919 618.2 641.475 618.2L640 618.2Z" fill="url(#fill4)" fill-rule="nonzero"/><path d="M640 618.2C626.966 618.2 616.4 614.238 616.4 609.35L616.4 627.05C616.4 631.938 626.966 635.9 640 635.9L641.475 635.9C643.919 635.9 645.9 633.919 645.9 631.475L645.9 622.625C645.9 620.181 643.919 618.2 641.475 618.2L640 618.2Z" fill="url(#fill5)" fill-rule="nonzero"/></g></g></g></g></g></g></g></g></svg>