<svg width="76" height="76" viewBox="0 0 76 76" fill="none" xmlns="http://www.w3.org/2000/svg">
<path d="M61.75 11.875C61.75 10.5633 60.6867 9.5 59.375 9.5C58.0633 9.5 57 10.5633 57 11.875V16.7569C53.125 13.2887 48.2955 10.8652 42.954 9.92906C41.5747 9.6873 40.3751 10.7979 40.3751 12.1983C40.3751 13.4294 41.3121 14.4468 42.5209 14.6798C46.9607 15.5354 50.9602 17.6274 54.1471 20.5833H48.2916C46.98 20.5833 45.9166 21.6467 45.9166 22.9583C45.9166 24.27 46.98 25.3333 48.2916 25.3333H59.375C60.6867 25.3333 61.75 24.27 61.75 22.9583V11.875ZM21.6559 14.6493C20.5089 15.4536 20.4456 17.0876 21.4362 18.0782C22.3063 18.9482 23.6874 19.0057 24.7065 18.3161C27.3093 16.5549 30.2801 15.2963 33.4794 14.6798C34.6883 14.4468 35.6251 13.4294 35.6251 12.1983C35.6251 10.7979 34.4256 9.68729 33.0463 9.92905C28.865 10.6619 24.9975 12.3061 21.6559 14.6493ZM33.4794 61.3203C34.6883 61.5533 35.6251 62.5707 35.6251 63.8018C35.6251 65.2021 34.4256 66.3128 33.0463 66.071C28.8644 65.3381 24.9963 63.6935 21.6544 61.3497C20.5076 60.5454 20.4443 58.9115 21.4349 57.921C22.305 57.0508 23.6861 56.9934 24.7052 57.6831C27.3083 59.4448 30.2795 60.7037 33.4794 61.3203ZM18.3148 51.2916C19.0043 52.3107 18.9467 53.6916 18.0767 54.5616C17.086 55.5523 15.4519 55.4889 14.6477 54.3417C12.3052 51.0006 10.6616 47.1336 9.92902 42.9532C9.6873 41.5739 10.7979 40.3744 12.1983 40.3744C13.4294 40.3744 14.4468 41.3113 14.6797 42.5202C15.2961 45.7189 16.5542 48.6891 18.3148 51.2916ZM14.68 33.4787C14.447 34.6875 13.4296 35.6244 12.1985 35.6244C10.7981 35.6244 9.68747 34.4248 9.92926 33.0455C10.6621 28.8649 12.306 24.998 14.6487 21.6568C15.453 20.5098 17.087 20.4464 18.0776 21.4371C18.9477 22.3071 19.0052 23.6881 18.3157 24.7072C16.5548 27.3097 15.2965 30.2799 14.68 33.4787Z" fill="url(#paint0_linear_121_35379)"/>
<path d="M61.75 11.875C61.75 10.5633 60.6867 9.5 59.375 9.5C58.0633 9.5 57 10.5633 57 11.875V16.7569C53.125 13.2887 48.2955 10.8652 42.954 9.92906C41.5747 9.6873 40.3751 10.7979 40.3751 12.1983C40.3751 13.4294 41.3121 14.4468 42.5209 14.6798C46.9607 15.5354 50.9602 17.6274 54.1471 20.5833H48.2916C46.98 20.5833 45.9166 21.6467 45.9166 22.9583C45.9166 24.27 46.98 25.3333 48.2916 25.3333H59.375C60.6867 25.3333 61.75 24.27 61.75 22.9583V11.875ZM21.6559 14.6493C20.5089 15.4536 20.4456 17.0876 21.4362 18.0782C22.3063 18.9482 23.6874 19.0057 24.7065 18.3161C27.3093 16.5549 30.2801 15.2963 33.4794 14.6798C34.6883 14.4468 35.6251 13.4294 35.6251 12.1983C35.6251 10.7979 34.4256 9.68729 33.0463 9.92905C28.865 10.6619 24.9975 12.3061 21.6559 14.6493ZM33.4794 61.3203C34.6883 61.5533 35.6251 62.5707 35.6251 63.8018C35.6251 65.2021 34.4256 66.3128 33.0463 66.071C28.8644 65.3381 24.9963 63.6935 21.6544 61.3497C20.5076 60.5454 20.4443 58.9115 21.4349 57.921C22.305 57.0508 23.6861 56.9934 24.7052 57.6831C27.3083 59.4448 30.2795 60.7037 33.4794 61.3203ZM18.3148 51.2916C19.0043 52.3107 18.9467 53.6916 18.0767 54.5616C17.086 55.5523 15.4519 55.4889 14.6477 54.3417C12.3052 51.0006 10.6616 47.1336 9.92902 42.9532C9.6873 41.5739 10.7979 40.3744 12.1983 40.3744C13.4294 40.3744 14.4468 41.3113 14.6797 42.5202C15.2961 45.7189 16.5542 48.6891 18.3148 51.2916ZM14.68 33.4787C14.447 34.6875 13.4296 35.6244 12.1985 35.6244C10.7981 35.6244 9.68747 34.4248 9.92926 33.0455C10.6621 28.8649 12.306 24.998 14.6487 21.6568C15.453 20.5098 17.087 20.4464 18.0776 21.4371C18.9477 22.3071 19.0052 23.6881 18.3157 24.7072C16.5548 27.3097 15.2965 30.2799 14.68 33.4787Z" fill="url(#paint1_linear_121_35379)"/>
<path d="M45.7486 47.157C46.2888 48.9152 45.2224 50.7623 43.4296 51.1735L38.2678 52.3576C38.0918 53.3509 38 54.3732 38 55.417C38 56.315 38.068 57.1972 38.199 58.0586L43.6835 59.4325C45.4204 59.8676 46.4514 61.6552 45.9582 63.3765L44.3785 68.8899C45.8301 70.0805 47.4775 71.0412 49.2651 71.7162L53.2531 67.5882C54.4972 66.3004 56.5607 66.2995 57.806 67.5861L61.7396 71.6504C63.5373 70.9497 65.1899 69.959 66.64 68.7359L65.0855 63.6766C64.5452 61.9183 65.6116 60.0713 67.4044 59.66L72.5656 58.476C72.7415 57.4829 72.8333 56.4607 72.8333 55.417C72.8333 54.5188 72.7653 53.6364 72.6342 52.7747L67.1505 51.401C65.4136 50.9659 64.3826 49.1784 64.8758 47.457L66.4553 41.9446C65.0037 40.7538 63.3561 39.793 61.5684 39.1179L57.5809 43.2453C56.3368 44.5331 54.2733 44.534 53.028 43.2474L49.0946 39.1833C47.2969 39.8839 45.6442 40.8745 44.194 42.0976L45.7486 47.157ZM55.4167 60.167C52.7933 60.167 50.6667 58.0404 50.6667 55.417C50.6667 52.7937 52.7933 50.667 55.4167 50.667C58.04 50.667 60.1667 52.7937 60.1667 55.417C60.1667 58.0404 58.04 60.167 55.4167 60.167Z" fill="url(#paint2_linear_121_35379)"/>
<defs>
<linearGradient id="paint0_linear_121_35379" x1="17.3041" y1="9.5" x2="67.4051" y2="80.3803" gradientUnits="userSpaceOnUse">
<stop stop-color="#0FAFFF"/>
<stop offset="0.923415" stop-color="#0067BF"/>
</linearGradient>
<linearGradient id="paint1_linear_121_35379" x1="35.8229" y1="2.76141" x2="49.6957" y2="98.1376" gradientUnits="userSpaceOnUse">
<stop stop-color="#885EDB" stop-opacity="0"/>
<stop offset="1" stop-color="#E362F8"/>
</linearGradient>
<linearGradient id="paint2_linear_121_35379" x1="64.1234" y1="70.4546" x2="46.7815" y2="40.3491" gradientUnits="userSpaceOnUse">
<stop stop-color="#70777D"/>
<stop offset="1" stop-color="#B9C0C7"/>
</linearGradient>
</defs>
</svg>
