<svg width="54" height="54" viewBox="0 0 54 54" fill="none" xmlns="http://www.w3.org/2000/svg">
<path d="M0.447757 4.53545C0.373313 4.25878 0.333313 3.96767 0.333313 3.66656C0.333313 1.82546 1.82552 0.333252 3.66662 0.333252H38.1108C46.7019 0.333252 53.6663 4.31322 53.6663 9.22208V10.8865L50.1785 35.8886H12.9354C11.4577 35.8886 10.2055 34.9275 9.7688 33.5964C6.61327 23.7631 1.10775 6.6021 0.498867 4.70767C0.39109 4.37989 0.333313 4.02989 0.333313 3.66656C0.333313 1.82546 1.82552 0.333252 3.66662 0.333252" fill="url(#paint0_linear_4143_2200)"/>
<path d="M25.1299 44.7775H44.632L44.7787 35.5542V13.7588C44.7787 11.2533 41.2243 9.22217 36.8398 9.22217H15.86C14.0189 9.22217 12.5267 10.7144 12.5267 12.5555C12.5267 12.9066 12.5811 13.2455 12.6822 13.5632C13.2344 15.281 18.78 32.5676 21.9544 42.4642C22.3855 43.8064 23.6433 44.7775 25.1299 44.7775Z" fill="url(#paint1_linear_4143_2200)"/>
<path d="M44.6953 40.7186L44.7776 35.5542V13.7588C44.7776 11.2533 41.2231 9.22217 36.8387 9.22217H15.86C14.0189 9.22217 12.5267 10.7144 12.5267 12.5555C12.5267 12.9066 12.5811 13.2455 12.6822 13.5632C13.2033 15.1843 18.1689 30.6631 21.3944 40.7186H44.6953Z" fill="url(#paint2_linear_4143_2200)"/>
<path d="M34.1366 51.3308C34.561 52.6841 35.8243 53.6663 37.3176 53.6663H38.111C46.702 53.6663 53.6664 49.6863 53.6664 44.7775V9.22217C53.6664 14.131 46.702 18.111 38.111 18.111H28.0488C26.2077 18.111 24.7155 19.6032 24.7155 21.4443C24.7155 21.801 24.7722 22.1454 24.8755 22.4676C25.4555 24.2732 30.9699 41.4597 34.1354 51.3297L34.1366 51.3308Z" fill="url(#paint3_linear_4143_2200)"/>
<path d="M9.0777 31.4441H50.7985L53.6663 10.8865V9.22208C53.6663 4.31322 46.7019 0.333252 38.1108 0.333252H3.66662C1.82552 0.333252 0.333313 1.82546 0.333313 3.66656C0.333313 3.93767 0.375535 4.19767 0.436646 4.44989C0.443312 4.47767 0.44109 4.50767 0.447757 4.53545L0.455534 4.52656C0.47109 4.58656 0.479979 4.64878 0.499979 4.70767C1.06664 6.47099 5.87105 21.4487 9.0777 31.4441Z" fill="url(#paint4_linear_4143_2200)"/>
<defs>
<linearGradient id="paint0_linear_4143_2200" x1="-1.5989" y1="10.4376" x2="53.0729" y2="25.0864" gradientUnits="userSpaceOnUse">
<stop stop-color="#D594F0"/>
<stop offset="0.585" stop-color="#524BB5"/>
<stop offset="0.826" stop-color="#0B3B7F"/>
<stop offset="1" stop-color="#002561"/>
</linearGradient>
<linearGradient id="paint1_linear_4143_2200" x1="10.0856" y1="21.2221" x2="48.2064" y2="31.4365" gradientUnits="userSpaceOnUse">
<stop stop-color="#CFB6FB"/>
<stop offset="0.257" stop-color="#B897F2"/>
<stop offset="0.811" stop-color="#2F65DA"/>
</linearGradient>
<linearGradient id="paint2_linear_4143_2200" x1="28.6521" y1="9.22217" x2="28.6521" y2="40.7186" gradientUnits="userSpaceOnUse">
<stop stop-color="#CFB6FB" stop-opacity="0.25"/>
<stop offset="0.15" stop-color="#CFB6FB" stop-opacity="0"/>
</linearGradient>
<linearGradient id="paint3_linear_4143_2200" x1="23.7077" y1="23.6232" x2="57.2575" y2="35.8342" gradientUnits="userSpaceOnUse">
<stop offset="0.059" stop-color="#EFCEFD"/>
<stop offset="0.462" stop-color="#CFB6FB"/>
<stop offset="0.673" stop-color="#B5A5F4"/>
<stop offset="1" stop-color="#8787E8"/>
</linearGradient>
<linearGradient id="paint4_linear_4143_2200" x1="26.9998" y1="0.333252" x2="26.9998" y2="31.4441" gradientUnits="userSpaceOnUse">
<stop stop-color="#D594F0" stop-opacity="0.2"/>
<stop offset="0.457" stop-color="#D594F0" stop-opacity="0"/>
</linearGradient>
</defs>
</svg>
