<?xml version="1.0" encoding="UTF-8" standalone="no"?><!DOCTYPE svg PUBLIC "-//W3C//DTD SVG 1.1//EN" "http://www.w3.org/Graphics/SVG/1.1/DTD/svg11.dtd">
<svg
    width="100%"
    height="100%"
    viewBox="0 0 32 32"
    version="1.1"
    xmlns="http://www.w3.org/2000/svg"
    xmlns:xlink="http://www.w3.org/1999/xlink"
    xml:space="preserve"
    xmlns:serif="http://www.serif.com/"
    style="fill-rule: evenodd; clip-rule: evenodd; stroke-linejoin: round; stroke-miterlimit: 2">
    <g>
        <path
            d="M3,6.5c0,-1.933 1.567,-3.5 3.5,-3.5l19,0c1.933,0 3.5,1.567 3.5,3.5l0,19c0,1.933 -1.567,3.5 -3.5,3.5l-19,0c-1.933,0 -3.5,-1.567 -3.5,-3.5l0,-19Z"
            style="fill: url(#_Linear1); fill-rule: nonzero" />
        <path
            d="M3,6.5c0,-1.933 1.567,-3.5 3.5,-3.5l19,0c1.933,0 3.5,1.567 3.5,3.5l0,19c0,1.933 -1.567,3.5 -3.5,3.5l-19,0c-1.933,0 -3.5,-1.567 -3.5,-3.5l0,-19Z"
            style="fill: url(#_Radial2); fill-rule: nonzero" />
        <path
            d="M25.5,4l-19,0c-1.381,0 -2.5,1.119 -2.5,2.5l0,19c0,1.381 1.119,2.5 2.5,2.5l19,0c1.381,0 2.5,-1.119 2.5,-2.5l0,-19c0,-1.381 -1.119,-2.5 -2.5,-2.5Zm-19,-1c-1.933,0 -3.5,1.567 -3.5,3.5l0,19c0,1.933 1.567,3.5 3.5,3.5l19,0c1.933,0 3.5,-1.567 3.5,-3.5l0,-19c0,-1.933 -1.567,-3.5 -3.5,-3.5l-19,0Z"
            style="fill: url(#_Linear3)" />
        <g>
            <path
                d="M17.242,22.802c-0.002,0.142 -0.059,0.277 -0.159,0.377c-0.101,0.1 -0.236,0.157 -0.377,0.16l-8.169,-0c-0.143,-0 -0.279,-0.057 -0.38,-0.157c-0.1,-0.101 -0.157,-0.237 -0.157,-0.38l0,-14.663c-0.001,-0.071 0.012,-0.141 0.038,-0.207c0.027,-0.066 0.066,-0.125 0.116,-0.175c0.05,-0.05 0.11,-0.09 0.176,-0.116c0.065,-0.027 0.136,-0.04 0.207,-0.039l8.169,0c0.142,0 0.279,0.057 0.379,0.158c0.101,0.1 0.157,0.237 0.157,0.379l0,14.663Z"
                style="fill: url(#_Linear4); fill-rule: nonzero" />
            <path
                d="M9.355,13.118c0.003,-0.264 0.109,-0.517 0.295,-0.703c0.187,-0.187 0.439,-0.293 0.703,-0.295l4.612,0c0.134,-0.004 0.267,0.019 0.392,0.068c0.124,0.048 0.238,0.121 0.335,0.213c0.096,0.093 0.173,0.205 0.226,0.328c0.053,0.122 0.081,0.255 0.082,0.389c0,0.134 -0.027,0.268 -0.079,0.392c-0.053,0.124 -0.129,0.236 -0.226,0.33c-0.096,0.094 -0.211,0.167 -0.336,0.216c-0.126,0.049 -0.26,0.072 -0.394,0.069l-4.612,-0c-0.265,-0.003 -0.519,-0.11 -0.706,-0.299c-0.187,-0.188 -0.292,-0.443 -0.292,-0.708Z"
                style="fill: #003067; fill-rule: nonzero" />
            <path
                d="M9.355,10.144c0,-0.266 0.105,-0.521 0.292,-0.709c0.187,-0.189 0.441,-0.296 0.706,-0.299l4.612,0c0.134,-0.003 0.268,0.02 0.394,0.069c0.125,0.049 0.24,0.122 0.336,0.216c0.097,0.094 0.173,0.206 0.226,0.331c0.052,0.124 0.079,0.257 0.079,0.392c-0.001,0.133 -0.029,0.266 -0.082,0.389c-0.053,0.123 -0.13,0.234 -0.226,0.327c-0.097,0.093 -0.211,0.165 -0.335,0.214c-0.125,0.048 -0.258,0.071 -0.392,0.067l-4.612,0c-0.264,-0.002 -0.516,-0.108 -0.703,-0.295c-0.186,-0.186 -0.292,-0.439 -0.295,-0.702Z"
                style="fill: #003067; fill-rule: nonzero" />
            <path
                d="M10.409,10.821c0.375,0 0.678,-0.303 0.678,-0.677c0,-0.375 -0.303,-0.678 -0.678,-0.678c-0.374,-0 -0.677,0.303 -0.677,0.678c-0,0.374 0.303,0.677 0.677,0.677Z"
                style="fill: #50e6ff; fill-rule: nonzero" />
            <path
                d="M10.409,13.795c0.375,0 0.678,-0.303 0.678,-0.677c0,-0.375 -0.303,-0.678 -0.678,-0.678c-0.374,-0 -0.677,0.303 -0.677,0.678c-0,0.374 0.303,0.677 0.677,0.677Z"
                style="fill: #50e6ff; fill-rule: nonzero" />
            <path
                d="M24,20.28c-0.025,-0.747 -0.313,-1.462 -0.814,-2.017c-0.502,-0.555 -1.184,-0.914 -1.925,-1.014c-0.054,-1.038 -0.512,-2.014 -1.278,-2.718c-0.765,-0.704 -1.777,-1.08 -2.816,-1.046c-0.84,-0.02 -1.666,0.22 -2.364,0.689c-0.698,0.469 -1.233,1.142 -1.532,1.927c-0.895,0.108 -1.721,0.533 -2.329,1.198c-0.608,0.664 -0.957,1.525 -0.984,2.426c0.039,1.01 0.477,1.964 1.218,2.652c0.741,0.688 1.724,1.054 2.735,1.018l6.955,0c0.823,-0.014 1.609,-0.346 2.193,-0.927c0.585,-0.581 0.922,-1.365 0.941,-2.188Z"
                style="fill: url(#_Linear5); fill-rule: nonzero" />
            <path
                d="M20.339,20.628l-0,-3.162l-0.876,-0l0,3.877l2.306,0l0,-0.715l-1.43,0Zm-6.682,-1.553c-0.173,-0.075 -0.334,-0.173 -0.48,-0.291c-0.038,-0.041 -0.068,-0.088 -0.087,-0.14c-0.02,-0.051 -0.029,-0.107 -0.026,-0.162c-0.003,-0.055 0.008,-0.11 0.033,-0.16c0.025,-0.049 0.062,-0.091 0.108,-0.122c0.115,-0.082 0.254,-0.121 0.395,-0.113c0.335,-0.012 0.665,0.083 0.941,0.273l0,-0.809c-0.303,-0.102 -0.621,-0.15 -0.941,-0.142c-0.368,-0.018 -0.73,0.092 -1.026,0.311c-0.125,0.1 -0.224,0.228 -0.291,0.373c-0.067,0.146 -0.099,0.305 -0.095,0.465c0.016,0.255 0.108,0.501 0.266,0.702c0.158,0.202 0.374,0.351 0.619,0.427c0.206,0.085 0.4,0.199 0.574,0.339c0.044,0.037 0.08,0.083 0.104,0.135c0.024,0.052 0.037,0.109 0.037,0.166c0.003,0.055 -0.008,0.11 -0.033,0.16c-0.025,0.049 -0.062,0.091 -0.108,0.122c-0.125,0.082 -0.274,0.121 -0.423,0.113c-0.376,-0.003 -0.738,-0.143 -1.017,-0.395l0,0.866c0.302,0.148 0.634,0.222 0.97,0.216c0.379,0.029 0.758,-0.063 1.082,-0.263c0.132,-0.099 0.239,-0.228 0.309,-0.378c0.071,-0.149 0.104,-0.314 0.096,-0.479c0.009,-0.241 -0.076,-0.477 -0.236,-0.658c-0.214,-0.239 -0.477,-0.429 -0.771,-0.556Zm4.856,1.487c0.212,-0.358 0.32,-0.769 0.311,-1.186c0.012,-0.365 -0.069,-0.728 -0.236,-1.054c-0.144,-0.29 -0.37,-0.532 -0.649,-0.696c-0.302,-0.176 -0.649,-0.26 -0.998,-0.245c-0.331,0.015 -0.653,0.108 -0.941,0.273c-0.294,0.17 -0.533,0.422 -0.687,0.725c-0.168,0.333 -0.255,0.7 -0.254,1.073c-0.006,0.342 0.072,0.682 0.226,0.988c0.146,0.286 0.367,0.527 0.64,0.696c0.284,0.173 0.609,0.267 0.941,0.273l0.8,0.941l1.129,0l-1.12,-1.035c0.356,-0.149 0.652,-0.415 0.838,-0.753Zm-0.875,-0.235c-0.085,0.108 -0.194,0.193 -0.318,0.251c-0.125,0.057 -0.261,0.084 -0.398,0.078c-0.136,0.004 -0.271,-0.025 -0.394,-0.084c-0.122,-0.059 -0.229,-0.146 -0.312,-0.254c-0.197,-0.273 -0.29,-0.607 -0.263,-0.942c-0.028,-0.336 0.069,-0.671 0.273,-0.941c0.084,-0.112 0.193,-0.202 0.319,-0.263c0.127,-0.061 0.266,-0.09 0.406,-0.085c0.136,-0.005 0.271,0.024 0.392,0.085c0.122,0.061 0.227,0.151 0.304,0.263c0.194,0.274 0.287,0.607 0.264,0.941c0.029,0.34 -0.068,0.679 -0.273,0.951Z"
                style="fill: #f2f2f2; fill-rule: nonzero" />
        </g>
    </g>
    <defs>
        <linearGradient
            id="_Linear1"
            x1="0"
            y1="0"
            x2="1"
            y2="0"
            gradientUnits="userSpaceOnUse"
            gradientTransform="matrix(3.2889,26.3111,-26.3111,3.2889,10.2222,3)">
            <stop offset="0" style="stop-color: #fff; stop-opacity: 1" />
            <stop offset="1" style="stop-color: #ebebeb; stop-opacity: 1" />
        </linearGradient>
        <radialGradient
            id="_Radial2"
            cx="0"
            cy="0"
            r="1"
            gradientUnits="userSpaceOnUse"
            gradientTransform="matrix(13.7222,20.5833,-17.8125,11.875,11.3056,9.77083)">
            <stop offset="0" style="stop-color: #fff; stop-opacity: 0.2" />
            <stop offset="0.18" style="stop-color: #fff; stop-opacity: 0.2" />
            <stop offset="1" style="stop-color: #b8b8b8; stop-opacity: 0.2" />
        </radialGradient>
        <linearGradient
            id="_Linear3"
            x1="0"
            y1="0"
            x2="1"
            y2="0"
            gradientUnits="userSpaceOnUse"
            gradientTransform="matrix(3.5008,26.2555,-26.2555,3.5008,11.3958,3)">
            <stop offset="0" style="stop-color: #bbb; stop-opacity: 1" />
            <stop offset="1" style="stop-color: #888; stop-opacity: 1" />
        </linearGradient>
        <linearGradient
            id="_Linear4"
            x1="0"
            y1="0"
            x2="1"
            y2="0"
            gradientUnits="userSpaceOnUse"
            gradientTransform="matrix(9.6357e-16,-15.7363,15.7363,9.6357e-16,12.6212,23.3387)">
            <stop offset="0" style="stop-color: #949494; stop-opacity: 1" />
            <stop offset="0.53" style="stop-color: #a2a2a2; stop-opacity: 1" />
            <stop offset="1" style="stop-color: #b3b3b3; stop-opacity: 1" />
        </linearGradient>
        <linearGradient
            id="_Linear5"
            x1="0"
            y1="0"
            x2="1"
            y2="0"
            gradientUnits="userSpaceOnUse"
            gradientTransform="matrix(6.09152e-16,-9.94821,9.94821,6.09152e-16,16.9788,23.3953)">
            <stop offset="0" style="stop-color: #0078d4; stop-opacity: 1" />
            <stop offset="0.16" style="stop-color: #1380da; stop-opacity: 1" />
            <stop offset="0.53" style="stop-color: #3c91e5; stop-opacity: 1" />
            <stop offset="0.82" style="stop-color: #559cec; stop-opacity: 1" />
            <stop offset="1" style="stop-color: #5ea0ef; stop-opacity: 1" />
        </linearGradient>
    </defs>
</svg>
