<svg width="32" height="32" viewBox="0 0 32 32" fill="none" xmlns="http://www.w3.org/2000/svg">
    <g clip-path="url(#clip0_44514_34224)">
        <path
            d="M3 6.5C3 4.567 4.567 3 6.5 3H25.5C27.433 3 29 4.567 29 6.5V25.5C29 27.433 27.433 29 25.5 29H6.5C4.567 29 3 27.433 3 25.5V6.5Z"
            fill="url(#paint0_linear_44514_34224)" />
        <path
            d="M3 6.5C3 4.567 4.567 3 6.5 3H25.5C27.433 3 29 4.567 29 6.5V25.5C29 27.433 27.433 29 25.5 29H6.5C4.567 29 3 27.433 3 25.5V6.5Z"
            fill="url(#paint1_radial_44514_34224)"
            fill-opacity="0.2" />
        <path
            fill-rule="evenodd"
            clip-rule="evenodd"
            d="M25.5 4H6.5C5.11929 4 4 5.11929 4 6.5V25.5C4 26.8807 5.11929 28 6.5 28H25.5C26.8807 28 28 26.8807 28 25.5V6.5C28 5.11929 26.8807 4 25.5 4ZM6.5 3C4.567 3 3 4.567 3 6.5V25.5C3 27.433 4.567 29 6.5 29H25.5C27.433 29 29 27.433 29 25.5V6.5C29 4.567 27.433 3 25.5 3H6.5Z"
            fill="url(#paint2_linear_44514_34224)" />
        <path
            d="M31.59 28.44C31.31 28.16 30.93 28 30.53 28H29.03V24.5C29.03 23.67 28.36 23 27.53 23C26.7 23 26.03 23.67 26.03 24.5V26.38C26.03 25.47 25.64 24.59 24.97 23.96C24.31 23.34 23.45 23 22.53 23C21.61 23 20.75 23.34 20.09 23.96C19.99 24.05 19.9 24.15 19.81 24.26C19.71 24.06 19.56 23.88 19.38 23.74C18.76 23.27 17.99 23 17.21 23C17.12 23 17.04 23 16.95 23C16.9 23 16.86 23 16.81 23C16.53 23 16.26 23.04 15.99 23.12C15.62 23.23 15.28 23.41 14.98 23.66C14.7 23.91 14.46 24.21 14.28 24.55C14.1 24.9 14 25.27 13.97 25.65V25.76C13.97 26.51 14.29 27.16 14.87 27.65C14.65 27.74 14.45 27.89 14.3 28.08C13.78 28.72 13.88 29.67 14.52 30.19C15.16 30.71 15.96 30.99 16.79 30.99C16.88 30.99 16.97 30.99 16.99 30.99C17.69 30.99 18.3 30.82 18.79 30.48C19.16 30.23 19.44 29.9 19.63 29.52C19.76 29.71 19.91 29.88 20.08 30.04C20.74 30.66 21.6 31 22.52 31C23.07 31 23.62 30.87 24.11 30.63L24.2 30.7C24.46 30.9 24.77 31 25.1 31C25.57 31 26.02 30.78 26.3 30.4C26.3 30.4 26.3 30.39 26.31 30.38C26.58 30.75 27.02 30.99 27.51 30.99H30.51C31.33 30.99 32.01 30.33 32.01 29.5C32.01 29.1 31.86 28.72 31.57 28.44H31.59ZM19.03 26.33C19.03 26.33 19.03 26.33 19.02 26.33H19.03Z"
            fill="#F5F5F5" />
        <path
            fill-rule="evenodd"
            clip-rule="evenodd"
            d="M22.5312 24C21.8782 24 21.246 24.2429 20.7751 24.6844C20.303 25.1269 20.0312 25.7343 20.0312 26.375V27.625C20.0312 28.2657 20.303 28.8731 20.7751 29.3156C21.246 29.7571 21.8782 30 22.5312 30C23.1306 30 23.7124 29.7954 24.1681 29.4205L24.8076 29.9001C25.0285 30.0658 25.3419 30.021 25.5076 29.8001C25.6733 29.5792 25.6285 29.2658 25.4076 29.1001L24.7923 28.6386C24.9475 28.326 25.0312 27.9806 25.0312 27.625V26.375C25.0312 25.7343 24.7595 25.1269 24.2874 24.6844C23.8165 24.2429 23.1843 24 22.5312 24ZM23.4075 27.6L23.9678 28.0203C24.0097 27.8924 24.0312 27.7592 24.0312 27.625V26.375C24.0312 26.0211 23.8816 25.6747 23.6035 25.4139C23.3243 25.1522 22.9391 25 22.5312 25C22.1234 25 21.7382 25.1522 21.459 25.4139C21.1809 25.6747 21.0312 26.0211 21.0312 26.375V27.625C21.0312 27.9789 21.1809 28.3253 21.459 28.5861C21.7382 28.8478 22.1234 29 22.5312 29C22.8174 29 23.0924 28.9251 23.3274 28.79L22.8075 28.4C22.5865 28.2343 22.5418 27.9209 22.7075 27.7C22.8731 27.4791 23.1865 27.4343 23.4075 27.6Z"
            fill="url(#paint3_linear_44514_34224)" />
        <path
            d="M18.7737 24.5291C18.2584 24.133 17.6113 23.9488 16.9654 24.0123C16.7368 23.994 16.5065 24.0181 16.2863 24.0838C16.0471 24.1551 15.8247 24.274 15.6326 24.4333C15.4405 24.5927 15.2827 24.7892 15.1687 25.0112C15.0548 25.2332 14.9871 25.4759 14.97 25.7248L14.9688 25.742V25.7593C14.9688 26.42 15.3849 26.8319 15.7754 27.0685C16.1432 27.2914 16.5671 27.4103 16.8075 27.4777L16.8336 27.485L16.9127 27.5071C17.161 27.5762 17.4112 27.6457 17.6174 27.771C17.8174 27.8924 17.9165 28.0277 17.9165 28.2481C17.9165 28.6 17.7955 28.747 17.6733 28.8301C17.5179 28.9357 17.2731 28.9925 16.9689 28.9925H16.9476L16.9264 28.9943C16.5139 29.0295 16.1043 28.9032 15.7843 28.643C15.5701 28.4687 15.2552 28.5011 15.0809 28.7153C14.9066 28.9295 14.939 29.2444 15.1532 29.4187C15.6691 29.8383 16.3269 30.0434 16.9899 29.9924C17.3792 29.99 17.8482 29.9202 18.2353 29.6572C18.6625 29.3669 18.9165 28.8918 18.9165 28.2481C18.9165 27.5775 18.5374 27.1597 18.1364 26.9162C17.8025 26.7134 17.4132 26.607 17.1793 26.5431C17.1521 26.5356 17.1269 26.5287 17.1042 26.5224C16.8477 26.4502 16.5396 26.3623 16.2938 26.2134C16.0646 26.0745 15.9746 25.9377 15.969 25.7755C15.9788 25.6683 16.0091 25.5639 16.0584 25.4678C16.1105 25.3663 16.1828 25.2762 16.2711 25.203C16.3593 25.1298 16.4617 25.075 16.5721 25.0421C16.6824 25.0092 16.7984 24.9988 16.9129 25.0117L16.9709 25.0183L17.0289 25.0113C17.434 24.9623 17.8419 25.0741 18.1643 25.322C18.3832 25.4902 18.6971 25.4492 18.8654 25.2303C19.0337 25.0113 18.9927 24.6974 18.7737 24.5291Z"
            fill="url(#paint4_linear_44514_34224)" />
        <path
            d="M28.0312 24.5C28.0312 24.2239 27.8074 24 27.5312 24C27.2551 24 27.0312 24.2239 27.0312 24.5V29.4916C27.0312 29.7672 27.2543 29.9908 27.5299 29.9916L30.5299 30C30.806 30.0008 31.0305 29.7775 31.0312 29.5014C31.032 29.2253 30.8088 29.0008 30.5326 29L28.0312 28.993V24.5Z"
            fill="url(#paint5_linear_44514_34224)" />
        <path
            d="M16 14C17.4754 14 18.8571 13.7626 19.9069 13.3427C20.3016 13.1848 20.6777 12.9899 21 12.7508V19.5001C21 20.9251 18.851 22.0001 16 22.0001C13.149 22.0001 11 20.9251 11 19.5001V12.7508C11.3223 12.9899 11.6984 13.1848 12.0931 13.3427C13.1429 13.7626 14.5246 14 16 14Z"
            fill="url(#paint6_linear_44514_34224)" />
        <path
            d="M11 11C11 12.1046 13.2386 13 16 13C18.7614 13 21 12.1046 21 11C21 10.9856 20.9996 10.9713 20.9989 10.957C20.9417 9.87231 18.7255 9 16 9C13.9289 9 12.152 9.50368 11.3929 10.2215C11.1531 10.4483 11.0149 10.6966 11.0011 10.957C11.0004 10.9713 11 10.9856 11 11Z"
            fill="url(#paint7_linear_44514_34224)" />
    </g>
    <defs>
        <linearGradient
            id="paint0_linear_44514_34224"
            x1="10.2222"
            y1="3"
            x2="13.5111"
            y2="29.3111"
            gradientUnits="userSpaceOnUse">
            <stop stop-color="white" />
            <stop offset="1" stop-color="#EBEBEB" />
        </linearGradient>
        <radialGradient
            id="paint1_radial_44514_34224"
            cx="0"
            cy="0"
            r="1"
            gradientUnits="userSpaceOnUse"
            gradientTransform="translate(11.3056 9.77083) rotate(56.3099) scale(24.7381 21.408)">
            <stop offset="0.177083" stop-color="white" />
            <stop offset="1" stop-color="#B8B8B8" />
        </radialGradient>
        <linearGradient
            id="paint2_linear_44514_34224"
            x1="11.3958"
            y1="3"
            x2="14.8966"
            y2="29.2555"
            gradientUnits="userSpaceOnUse">
            <stop stop-color="#BBBBBB" />
            <stop offset="1" stop-color="#888888" />
        </linearGradient>
        <linearGradient
            id="paint3_linear_44514_34224"
            x1="14.9687"
            y1="24"
            x2="18.9025"
            y2="34.5308"
            gradientUnits="userSpaceOnUse">
            <stop stop-color="#008EE6" />
            <stop offset="1" stop-color="#006094" />
        </linearGradient>
        <linearGradient
            id="paint4_linear_44514_34224"
            x1="14.9687"
            y1="24"
            x2="18.9025"
            y2="34.5308"
            gradientUnits="userSpaceOnUse">
            <stop stop-color="#008EE6" />
            <stop offset="1" stop-color="#006094" />
        </linearGradient>
        <linearGradient
            id="paint5_linear_44514_34224"
            x1="14.9687"
            y1="24"
            x2="18.9025"
            y2="34.5308"
            gradientUnits="userSpaceOnUse">
            <stop stop-color="#008EE6" />
            <stop offset="1" stop-color="#006094" />
        </linearGradient>
        <linearGradient
            id="paint6_linear_44514_34224"
            x1="11"
            y1="9"
            x2="23.5651"
            y2="18.6654"
            gradientUnits="userSpaceOnUse">
            <stop stop-color="#008EE6" />
            <stop offset="1" stop-color="#006094" />
        </linearGradient>
        <linearGradient
            id="paint7_linear_44514_34224"
            x1="11"
            y1="9"
            x2="23.5651"
            y2="18.6654"
            gradientUnits="userSpaceOnUse">
            <stop stop-color="#008EE6" />
            <stop offset="1" stop-color="#006094" />
        </linearGradient>
        <clipPath id="clip0_44514_34224">
            <rect width="32" height="32" fill="white" />
        </clipPath>
    </defs>
</svg>
