<svg viewBox="0 0 16 16" fill="none" xmlns="http://www.w3.org/2000/svg">
  <g opacity="0.75">
    <path opacity="0.1" d="M15 15H1V1H15V15Z" fill="#E0E0E0" />
    <path d="M2 1V2H3V1H2ZM4 1V2H5V1H4ZM6 1V2H7V1H6ZM8 1V2H9V1H8ZM10 1V2H11V1H10ZM12 1V2H13V1H12ZM14 1V2H15V1H14ZM1 14V15H2V14H1ZM3 14V15H4V14H3ZM5 14V15H6V14H5ZM7 14V15H8V14H7ZM9 14V15H10V14H9ZM11 14V15H12V14H11ZM13 14V15H14V14H13ZM2 2H1V3H2V2ZM2 4H1V5H2V4ZM2 6H1V7H2V6ZM2 8H1V9H2V8ZM2 10H1V11H2V10ZM2 12H1V13H2V12ZM15 3H14V4H15V3ZM15 5H14V6H15V5ZM15 7H14V8H15V7ZM15 9H14V10H15V9ZM15 11H14V12H15V11ZM15 13H14V14H15V13Z" fill="#E0E0E0" />
  </g>
  <path d="M8.707 8L11.682 10.975L10.975 11.682L8 8.707L5.025 11.682L4.318 10.975L7.293 8L4.318 5.025L5.025 4.318L8 7.293L10.975 4.318L11.682 5.025L8.707 8Z" fill="#E0E0E0" />
</svg>