<svg width="16" height="16" viewBox="0 0 16 16" fill="none" xmlns="http://www.w3.org/2000/svg">
    <g clip-path="url(#clip0_79_14733)">
        <path
            d="M16 7.02L15.933 7.213C15.8274 7.47807 15.6653 7.71694 15.458 7.913C15.2208 8.14014 14.9401 8.31701 14.6329 8.43301C14.3256 8.549 13.9981 8.60172 13.67 8.588H13.521C13.1346 9.64478 12.5584 10.6221 11.821 11.472C11.3231 12.0374 10.7368 12.5183 10.085 12.896C9.29278 13.3479 8.42946 13.6617 7.532 13.824C6.88836 13.9418 6.23533 14.0007 5.581 14C4.36312 14.0538 3.1519 13.7931 2.064 13.243C1.31419 12.7447 0.751344 12.0112 0.463998 11.158C0.14451 10.3088 -0.012877 9.40722 -1.76608e-06 8.5C-1.76608e-06 8.36739 0.0526767 8.24021 0.146445 8.14645C0.240213 8.05268 0.36739 8 0.499998 8H11.036C11.4385 7.98163 11.8337 7.88588 12.2 7.718C12.0364 7.45633 11.9282 7.1639 11.8822 6.85877C11.8361 6.55365 11.853 6.24231 11.932 5.944C12.0164 5.60912 12.1549 5.29026 12.342 5L12.49 4.784L12.72 4.918C13.0195 5.10825 13.2758 5.359 13.4727 5.65417C13.6695 5.94935 13.8025 6.28242 13.863 6.632C14.086 6.59396 14.3118 6.57423 14.538 6.573C14.999 6.53985 15.4581 6.65971 15.844 6.914L16 7.02ZM2.5 7.25V6.25C2.5 6.1837 2.47366 6.12011 2.42677 6.07322C2.37989 6.02634 2.3163 6 2.25 6H1.25C1.18369 6 1.12011 6.02634 1.07322 6.07322C1.02634 6.12011 0.999998 6.1837 0.999998 6.25V7.25C0.999998 7.3163 1.02634 7.37989 1.07322 7.42678C1.12011 7.47366 1.18369 7.5 1.25 7.5H2.25C2.3163 7.5 2.37989 7.47366 2.42677 7.42678C2.47366 7.37989 2.5 7.3163 2.5 7.25ZM4.5 7.25V6.25C4.5 6.1837 4.47366 6.12011 4.42677 6.07322C4.37989 6.02634 4.3163 6 4.25 6H3.25C3.18369 6 3.12011 6.02634 3.07322 6.07322C3.02634 6.12011 3 6.1837 3 6.25V7.25C3 7.3163 3.02634 7.37989 3.07322 7.42678C3.12011 7.47366 3.18369 7.5 3.25 7.5H4.25C4.3163 7.5 4.37989 7.47366 4.42677 7.42678C4.47366 7.37989 4.5 7.3163 4.5 7.25ZM6.5 7.25V6.25C6.5 6.1837 6.47366 6.12011 6.42677 6.07322C6.37989 6.02634 6.3163 6 6.25 6H5.25C5.18369 6 5.12011 6.02634 5.07322 6.07322C5.02634 6.12011 5 6.1837 5 6.25V7.25C5 7.3163 5.02634 7.37989 5.07322 7.42678C5.12011 7.47366 5.18369 7.5 5.25 7.5H6.25C6.3163 7.5 6.37989 7.47366 6.42677 7.42678C6.47366 7.37989 6.5 7.3163 6.5 7.25ZM8.5 7.25V6.25C8.5 6.1837 8.47366 6.12011 8.42677 6.07322C8.37989 6.02634 8.3163 6 8.25 6H7.25C7.18369 6 7.12011 6.02634 7.07322 6.07322C7.02634 6.12011 7 6.1837 7 6.25V7.25C7 7.3163 7.02634 7.37989 7.07322 7.42678C7.12011 7.47366 7.18369 7.5 7.25 7.5H8.25C8.3163 7.5 8.37989 7.47366 8.42677 7.42678C8.47366 7.37989 8.5 7.3163 8.5 7.25ZM4.5 5.25V4.25C4.5 4.1837 4.47366 4.12011 4.42677 4.07322C4.37989 4.02634 4.3163 4 4.25 4H3.25C3.18369 4 3.12011 4.02634 3.07322 4.07322C3.02634 4.12011 3 4.1837 3 4.25V5.25C3 5.3163 3.02634 5.37989 3.07322 5.42678C3.12011 5.47366 3.18369 5.5 3.25 5.5H4.25C4.3163 5.5 4.37989 5.47366 4.42677 5.42678C4.47366 5.37989 4.5 5.3163 4.5 5.25ZM6.5 5.25V4.25C6.5 4.1837 6.47366 4.12011 6.42677 4.07322C6.37989 4.02634 6.3163 4 6.25 4H5.25C5.18369 4 5.12011 4.02634 5.07322 4.07322C5.02634 4.12011 5 4.1837 5 4.25V5.25C5 5.3163 5.02634 5.37989 5.07322 5.42678C5.12011 5.47366 5.18369 5.5 5.25 5.5H6.25C6.3163 5.5 6.37989 5.47366 6.42677 5.42678C6.47366 5.37989 6.5 5.3163 6.5 5.25ZM8.5 5.25V4.25C8.5 4.1837 8.47366 4.12011 8.42677 4.07322C8.37989 4.02634 8.3163 4 8.25 4H7.25C7.18369 4 7.12011 4.02634 7.07322 4.07322C7.02634 4.12011 7 4.1837 7 4.25V5.25C7 5.3163 7.02634 5.37989 7.07322 5.42678C7.12011 5.47366 7.18369 5.5 7.25 5.5H8.25C8.3163 5.5 8.37989 5.47366 8.42677 5.42678C8.47366 5.37989 8.5 5.3163 8.5 5.25ZM8.5 3.25V2.25C8.5 2.1837 8.47366 2.12011 8.42677 2.07322C8.37989 2.02634 8.3163 2 8.25 2H7.25C7.18369 2 7.12011 2.02634 7.07322 2.07322C7.02634 2.12011 7 2.1837 7 2.25V3.25C7 3.3163 7.02634 3.37989 7.07322 3.42678C7.12011 3.47366 7.18369 3.5 7.25 3.5H8.25C8.3163 3.5 8.37989 3.47366 8.42677 3.42678C8.47366 3.37989 8.5 3.3163 8.5 3.25ZM10.5 7.25V6.25C10.5 6.1837 10.4737 6.12011 10.4268 6.07322C10.3799 6.02634 10.3163 6 10.25 6H9.25C9.18369 6 9.12011 6.02634 9.07322 6.07322C9.02634 6.12011 9 6.1837 9 6.25V7.25C9 7.3163 9.02634 7.37989 9.07322 7.42678C9.12011 7.47366 9.18369 7.5 9.25 7.5H10.25C10.3163 7.5 10.3799 7.47366 10.4268 7.42678C10.4737 7.37989 10.5 7.3163 10.5 7.25Z"
            fill="#0091E2" />
    </g>
    <circle cx="13" cy="13" r="3" fill="#3bb44a" />
    <circle cx="13" cy="13" r="3" fill="#d02e00" />
    <defs>
        <clipPath id="clip0_79_14733">
            <rect width="16" height="16" fill="white" />
        </clipPath>
    </defs>
</svg>
