<svg width="16" height="16" viewBox="0 0 16 16" fill="none" xmlns="http://www.w3.org/2000/svg">
    <g clip-path="url(#clip0_84_15348)">
        <path
            d="M16.0002 7.02L15.9332 7.213C15.8276 7.47807 15.6655 7.71694 15.4582 7.913C15.221 8.14014 14.9404 8.31701 14.6331 8.43301C14.3259 8.549 13.9984 8.60172 13.6702 8.588H13.5212C13.1348 9.64478 12.5587 10.6221 11.8212 11.472C11.3234 12.0374 10.7371 12.5183 10.0852 12.896C9.29302 13.3479 8.42971 13.6617 7.53224 13.824C6.88861 13.9418 6.23557 14.0007 5.58124 14C4.36336 14.0538 3.15215 13.7931 2.06424 13.243C1.31444 12.7447 0.751588 12.0112 0.464242 11.158C0.144754 10.3088 -0.0126328 9.40722 0.000242375 8.5C0.000242375 8.36739 0.0529208 8.24021 0.146689 8.14645C0.240457 8.05268 0.367634 8 0.500242 8H11.0362C11.4388 7.98163 11.834 7.88588 12.2002 7.718C12.0367 7.45633 11.9285 7.1639 11.8824 6.85877C11.8363 6.55365 11.8533 6.24231 11.9322 5.944C12.0166 5.60912 12.1551 5.29026 12.3422 5L12.4902 4.784L12.7202 4.918C13.0197 5.10825 13.2761 5.359 13.4729 5.65417C13.6698 5.94935 13.8027 6.28242 13.8632 6.632C14.0863 6.59396 14.312 6.57423 14.5382 6.573C14.9992 6.53985 15.4583 6.65971 15.8442 6.914L16.0002 7.02ZM2.50024 7.25V6.25C2.50024 6.1837 2.4739 6.12011 2.42702 6.07322C2.38014 6.02634 2.31655 6 2.25024 6H1.25024C1.18394 6 1.12035 6.02634 1.07347 6.07322C1.02658 6.12011 1.00024 6.1837 1.00024 6.25V7.25C1.00024 7.3163 1.02658 7.37989 1.07347 7.42678C1.12035 7.47366 1.18394 7.5 1.25024 7.5H2.25024C2.31655 7.5 2.38014 7.47366 2.42702 7.42678C2.4739 7.37989 2.50024 7.3163 2.50024 7.25ZM4.50024 7.25V6.25C4.50024 6.1837 4.4739 6.12011 4.42702 6.07322C4.38014 6.02634 4.31655 6 4.25024 6H3.25024C3.18394 6 3.12035 6.02634 3.07347 6.07322C3.02658 6.12011 3.00024 6.1837 3.00024 6.25V7.25C3.00024 7.3163 3.02658 7.37989 3.07347 7.42678C3.12035 7.47366 3.18394 7.5 3.25024 7.5H4.25024C4.31655 7.5 4.38014 7.47366 4.42702 7.42678C4.4739 7.37989 4.50024 7.3163 4.50024 7.25ZM6.50024 7.25V6.25C6.50024 6.1837 6.4739 6.12011 6.42702 6.07322C6.38014 6.02634 6.31655 6 6.25024 6H5.25024C5.18394 6 5.12035 6.02634 5.07347 6.07322C5.02658 6.12011 5.00024 6.1837 5.00024 6.25V7.25C5.00024 7.3163 5.02658 7.37989 5.07347 7.42678C5.12035 7.47366 5.18394 7.5 5.25024 7.5H6.25024C6.31655 7.5 6.38014 7.47366 6.42702 7.42678C6.4739 7.37989 6.50024 7.3163 6.50024 7.25ZM8.50024 7.25V6.25C8.50024 6.1837 8.4739 6.12011 8.42702 6.07322C8.38013 6.02634 8.31655 6 8.25024 6H7.25024C7.18394 6 7.12035 6.02634 7.07347 6.07322C7.02658 6.12011 7.00024 6.1837 7.00024 6.25V7.25C7.00024 7.3163 7.02658 7.37989 7.07347 7.42678C7.12035 7.47366 7.18394 7.5 7.25024 7.5H8.25024C8.31655 7.5 8.38013 7.47366 8.42702 7.42678C8.4739 7.37989 8.50024 7.3163 8.50024 7.25ZM4.50024 5.25V4.25C4.50024 4.1837 4.4739 4.12011 4.42702 4.07322C4.38014 4.02634 4.31655 4 4.25024 4H3.25024C3.18394 4 3.12035 4.02634 3.07347 4.07322C3.02658 4.12011 3.00024 4.1837 3.00024 4.25V5.25C3.00024 5.3163 3.02658 5.37989 3.07347 5.42678C3.12035 5.47366 3.18394 5.5 3.25024 5.5H4.25024C4.31655 5.5 4.38014 5.47366 4.42702 5.42678C4.4739 5.37989 4.50024 5.3163 4.50024 5.25ZM6.50024 5.25V4.25C6.50024 4.1837 6.4739 4.12011 6.42702 4.07322C6.38014 4.02634 6.31655 4 6.25024 4H5.25024C5.18394 4 5.12035 4.02634 5.07347 4.07322C5.02658 4.12011 5.00024 4.1837 5.00024 4.25V5.25C5.00024 5.3163 5.02658 5.37989 5.07347 5.42678C5.12035 5.47366 5.18394 5.5 5.25024 5.5H6.25024C6.31655 5.5 6.38014 5.47366 6.42702 5.42678C6.4739 5.37989 6.50024 5.3163 6.50024 5.25ZM8.50024 5.25V4.25C8.50024 4.1837 8.4739 4.12011 8.42702 4.07322C8.38013 4.02634 8.31655 4 8.25024 4H7.25024C7.18394 4 7.12035 4.02634 7.07347 4.07322C7.02658 4.12011 7.00024 4.1837 7.00024 4.25V5.25C7.00024 5.3163 7.02658 5.37989 7.07347 5.42678C7.12035 5.47366 7.18394 5.5 7.25024 5.5H8.25024C8.31655 5.5 8.38013 5.47366 8.42702 5.42678C8.4739 5.37989 8.50024 5.3163 8.50024 5.25ZM8.50024 3.25V2.25C8.50024 2.1837 8.4739 2.12011 8.42702 2.07322C8.38013 2.02634 8.31655 2 8.25024 2H7.25024C7.18394 2 7.12035 2.02634 7.07347 2.07322C7.02658 2.12011 7.00024 2.1837 7.00024 2.25V3.25C7.00024 3.3163 7.02658 3.37989 7.07347 3.42678C7.12035 3.47366 7.18394 3.5 7.25024 3.5H8.25024C8.31655 3.5 8.38013 3.47366 8.42702 3.42678C8.4739 3.37989 8.50024 3.3163 8.50024 3.25ZM10.5002 7.25V6.25C10.5002 6.1837 10.4739 6.12011 10.427 6.07322C10.3801 6.02634 10.3165 6 10.2502 6H9.25024C9.18394 6 9.12035 6.02634 9.07347 6.07322C9.02658 6.12011 9.00024 6.1837 9.00024 6.25V7.25C9.00024 7.3163 9.02658 7.37989 9.07347 7.42678C9.12035 7.47366 9.18394 7.5 9.25024 7.5H10.2502C10.3165 7.5 10.3801 7.47366 10.427 7.42678C10.4739 7.37989 10.5002 7.3163 10.5002 7.25Z"
            fill="#0091E2" />
    </g>
    <circle cx="13" cy="13" r="3" fill="#3bb44a" />
    <circle cx="13" cy="13" r="3" fill="#3bb44a" />
    <defs>
        <clipPath id="clip0_84_15348">
            <rect width="16" height="16" fill="white" />
        </clipPath>
    </defs>
</svg>
