<svg xmlns="http://www.w3.org/2000/svg" viewBox="0 0 2048 2048">
    <path
        d="M1280 1153l-255 255H768v384H128V256h1664v485q-37 5-66 15t-62 31V640h-384v256h257l-128 128h-129v129zm-128-257V640H768v256h384zm-512 768v-256H256v256h384zm0-384v-256H256v256h384zm0-384V640H256v256h384zM256 512h1408V384H256v128zm512 512v256h384v-256H768zm1280 70q0 39-15 76t-43 65l-717 719-377 94 94-377 717-718q28-28 65-42t76-15q42 0 78 15t64 42 42 63 16 78zm-128 0q0-31-20-50t-52-20q-14 0-27 4t-23 15l-692 694-34 135 135-34 692-693q21-21 21-51z" />
</svg>
